<svg xmlns="http://www.w3.org/2000/svg" width="800" height="800" viewBox="0 0 800 800">
<g>
<path d="M 240.11,579.55 L 241.18,580.00 L 241.10,580.00 L 240.13,579.60 L 239.63,579.32 L 239.58,579.28 M 224.33,565.63 L 224.63,566.75 L 225.45,568.37 L 226.17,568.92 L 226.54,568.93 L 227.26,568.77 L 227.56,568.42 L 228.08,567.55 L 228.18,566.84 L 228.44,566.17 L 228.21,572.34 L 228.18,573.20 L 228.11,574.63 L 228.07,575.31 L 227.99,576.42 L 227.95,576.94 L 227.84,577.77 L 227.78,578.15 L 227.64,578.73 L 227.48,579.26 L 227.01,579.76 L 225.96,580.00 L 225.50,580.00 L 224.88,579.73 L 224.75,579.62 L 224.54,579.25 L 224.44,579.04 L 224.30,578.41 L 224.23,578.06 L 224.14,577.12 L 224.10,576.60 L 224.06,575.48 L 224.20,576.23 L 224.54,576.53 L 225.38,577.00 L 226.00,577.00 L 227.31,576.58 L 227.84,575.92 L 227.93,575.45 L 228.00,574.44 L 227.84,573.86 L 227.40,572.64 L 226.98,572.00 L 226.43,571.25 L 226.14,571.00 L 226.00,571.00 L 225.73,571.08 L 225.57,571.25 L 225.23,571.67 L 225.02,572.00 L 224.32,573.57 L 224.03,574.71 L 224.03,574.55 L 224.01,572.78 L 224.00,571.83 L 224.00,569.54 L 224.00,568.34 L 224.01,566.33 L 224.02,565.38 L 224.06,563.83 L 224.06,563.71 M 630.67,576.00 L 631.79,576.01 L 632.32,576.02 L 633.19,576.06 L 634.00,576.11 L 635.00,576.33 L 635.42,576.47 L 635.81,576.94 L 636.00,578.00 L 636.00,578.46 L 635.78,579.09 L 635.60,579.36 L 634.75,579.69 L 634.47,579.76 L 633.75,579.85 L 633.35,579.89 L 632.33,579.95 L 631.78,579.97 L 630.43,579.99 L 627.97,580.00 L 627.37,580.00 L 629.69,579.99 L 630.95,579.97 L 631.45,579.95 L 632.39,579.90 L 632.74,579.86 L 633.39,579.77 L 633.62,579.70 L 634.31,579.38 L 634.39,579.10 L 634.41,578.47 L 634.29,578.00 L 633.83,576.99 L 633.34,576.53 L 632.94,576.38 L 632.04,576.14 L 631.37,576.08 L 629.89,576.00 M 457.69,577.17 L 457.92,578.33 L 457.95,578.86 L 457.55,579.56 L 456.25,580.00 L 456.00,580.00 L 455.34,579.65 L 454.99,579.43 L 454.18,578.70 L 453.99,578.45 L 454.35,578.65 L 455.08,578.90 L 455.47,578.80 L 456.32,578.45 L 456.87,578.10 L 457.45,577.54 L 457.59,577.10 L 457.53,576.82 M 619.77,579.13 L 619.74,579.12 L 619.74,579.11 M 232.35,570.18 L 232.80,570.81 L 236.28,575.59 L 237.14,576.71 L 236.96,576.50 L 236.08,575.37 L 235.62,574.76 L 234.58,573.33 L 232.80,570.82 L 232.15,569.89 M 448.90,571.96 L 449.67,572.72 L 450.09,573.22 L 450.93,574.32 L 451.38,575.00 L 452.31,576.32 L 451.66,575.50 L 451.19,574.75 L 450.30,573.54 L 449.87,572.98 L 449.06,572.13 L 448.82,571.89 M 302.99,574.51 L 302.03,575.24 L 301.18,575.61 L 300.67,575.74 L 298.44,576.08 L 297.21,576.03 L 294.74,575.78 L 294.09,575.57 L 297.38,576.00 L 298.32,576.00 L 299.92,575.76 L 300.67,575.61 L 301.88,575.12 L 302.44,574.85 L 303.23,574.20 L 303.34,574.09 M 456.56,575.00 L 456.44,574.81 L 455.99,574.19 L 455.87,574.04 L 456.51,574.91 M 291.33,574.32 L 291.31,574.31 L 291.18,574.18 M 291.03,574.03 L 291.00,574.00 L 290.99,573.98 M 448.52,571.63 L 448.61,571.71 L 448.27,571.48 M 303.17,570.92 L 303.49,571.33 L 303.53,571.42 L 303.16,571.04 L 302.80,570.75 M 301.99,570.36 L 302.66,570.68 L 301.84,570.34 M 290.98,562.54 L 290.33,563.18 L 289.51,564.91 L 289.00,568.15 L 289.00,569.42 L 288.96,569.25 L 288.97,568.14 L 289.15,565.91 L 289.49,564.93 L 290.36,563.08 L 291.05,562.46 L 291.20,562.38 M 300.33,566.65 L 299.66,566.74 L 298.30,567.03 L 297.85,567.27 L 297.08,567.85 L 296.87,568.25 L 296.50,569.16 L 296.51,569.24 L 296.44,569.21 L 296.12,569.06 L 295.73,568.68 L 295.50,568.00 L 295.50,567.71 L 295.76,567.28 L 295.94,567.09 L 296.64,566.84 L 297.06,566.74 L 298.33,566.65 M 305.67,566.81 L 306.52,566.85 L 307.25,566.90 L 307.35,566.92 L 307.54,567.29 L 307.63,567.53 L 307.78,568.28 L 307.81,568.78 L 307.78,568.52 L 307.67,568.14 L 307.44,567.44 L 307.28,567.23 L 306.95,566.91 L 306.75,566.89 L 305.26,566.80 M 298.57,560.87 L 299.51,561.15 L 301.27,561.84 L 301.79,562.31 L 301.65,562.18 L 300.93,561.77 L 300.54,561.58 L 299.61,561.25 L 296.98,560.77 M 224.44,559.92 L 224.47,559.75 L 224.95,558.85 L 226.09,557.95 L 224.79,559.18 M 445.06,573.35 L 444.81,575.17 L 445.06,573.36 Z" fill="rgba(95,96,96,1)"/>
<path d="M 298.09,556.18 L 299.31,556.40 L 299.90,556.54 L 301.07,557.05 L 302.99,558.20 L 303.96,558.86 L 305.40,560.22 L 306.03,560.89 L 306.70,562.09 L 306.93,562.65 L 306.75,563.46 L 306.65,563.63 L 306.26,563.86 L 305.40,564.00 L 304.92,564.00 L 303.65,563.53 L 301.89,562.40 L 301.27,561.84 L 299.51,561.15 L 298.57,560.87 L 296.48,560.74 L 295.44,560.75 L 293.45,561.18 L 291.05,562.46 L 290.36,563.08 L 289.49,564.93 L 289.15,565.91 L 288.97,568.14 L 288.96,569.25 L 289.47,571.39 L 291.00,574.00 L 291.31,574.31 L 292.14,574.82 L 292.59,575.06 L 293.64,575.44 L 294.74,575.78 L 297.21,576.03 L 298.44,576.08 L 300.67,575.74 L 301.18,575.61 L 302.03,575.24 L 302.99,574.51 L 303.50,573.90 L 303.86,572.77 L 303.93,572.23 L 303.49,571.33 L 303.17,570.92 L 301.99,570.36 L 299.50,570.00 L 298.72,570.00 L 297.67,569.94 L 297.21,569.89 L 296.72,569.69 L 296.53,569.57 L 296.50,569.16 L 296.87,568.25 L 297.08,567.85 L 297.85,567.27 L 298.30,567.03 L 299.66,566.74 L 300.43,566.64 L 302.55,566.63 L 306.75,566.89 L 306.95,566.91 L 307.28,567.23 L 307.44,567.44 L 307.67,568.14 L 307.78,568.52 L 307.92,569.56 L 308.00,571.46 L 308.00,572.56 L 307.55,574.64 L 307.26,575.65 L 306.33,577.37 L 305.83,578.16 L 304.60,579.28 L 302.56,580.01 L 302.27,580.02 L 301.22,580.14 L 299.50,580.42 L 298.95,580.53 L 297.50,580.56 L 296.77,580.55 L 295.50,580.35 L 294.57,580.13 L 292.87,579.58 L 292.05,579.28 L 290.56,578.55 L 289.85,578.17 L 288.59,577.29 L 287.99,576.82 L 286.96,575.79 L 286.47,575.25 L 285.68,574.06 L 285.31,573.45 L 284.75,572.12 L 284.50,571.43 L 284.19,569.97 L 284.00,567.62 L 284.00,566.94 L 284.23,565.60 L 284.38,564.93 L 284.89,563.65 L 285.46,562.38 L 287.29,560.17 L 288.30,559.14 L 290.80,557.59 L 291.46,557.26 L 292.85,556.76 L 295.03,556.31 L 295.93,556.22 L 297.39,556.18 M 653.77,556.40 L 654.93,556.57 L 657.08,557.43 L 659.91,559.46 L 660.37,559.91 L 661.02,560.72 L 661.30,561.10 L 661.63,561.75 L 661.75,562.05 L 661.76,562.53 L 661.73,562.74 L 661.46,563.04 L 661.28,563.16 L 660.73,563.25 L 660.43,563.28 L 659.62,563.16 L 659.19,563.07 L 658.16,562.73 L 656.37,561.95 L 655.05,561.30 L 652.74,560.71 L 651.63,560.53 L 649.72,560.88 L 648.81,561.17 L 647.29,562.45 L 645.46,565.45 L 645.06,566.39 L 644.76,568.23 L 644.68,569.13 L 644.94,570.82 L 645.13,571.63 L 645.84,573.08 L 646.25,573.77 L 647.33,574.90 L 647.91,575.42 L 649.26,576.14 L 649.96,576.44 L 651.48,576.66 L 652.25,576.71 L 653.84,576.35 L 656.20,575.06 L 657.01,574.42 L 658.32,573.61 L 658.92,573.28 L 659.81,573.09 L 660.21,573.08 L 660.71,573.51 L 661.00,574.85 L 661.00,575.36 L 660.74,576.30 L 660.57,576.76 L 659.99,577.58 L 659.67,577.98 L 658.83,578.66 L 658.38,578.98 L 657.32,579.51 L 656.22,579.99 L 653.52,580.40 L 652.13,580.50 L 649.12,580.02 L 647.78,579.69 L 645.53,578.50 L 644.48,577.82 L 642.82,576.06 L 642.07,575.13 L 641.02,572.98 L 640.58,571.88 L 640.17,569.53 L 640.05,568.35 L 640.29,565.98 L 640.50,564.81 L 641.41,562.60 L 641.95,561.53 L 643.56,559.67 L 646.76,557.44 L 647.89,556.91 L 650.25,556.39 L 651.43,556.21 M 364.91,556.49 L 365.82,556.61 L 367.62,557.17 L 368.51,557.50 L 370.24,558.50 L 372.68,560.48 L 373.34,561.14 L 374.32,562.30 L 374.76,562.86 L 375.34,563.94 L 375.59,564.49 L 375.86,565.69 L 376.00,567.83 L 376.00,569.24 L 375.72,571.61 L 375.54,572.73 L 374.87,574.56 L 374.49,575.42 L 373.41,576.77 L 371.29,578.32 L 370.35,578.80 L 368.20,579.54 L 367.11,579.87 L 364.89,580.28 L 363.81,580.43 L 361.84,580.47 L 360.91,580.43 L 359.50,580.04 L 358.72,579.72 L 357.31,578.80 L 356.63,578.29 L 355.46,577.06 L 354.90,576.41 L 353.98,574.94 L 353.55,574.18 L 352.91,572.55 L 352.63,571.72 L 352.29,569.99 L 352.16,569.13 L 352.15,567.38 L 352.19,566.51 L 352.54,564.82 L 353.48,562.41 L 353.96,561.51 L 355.16,560.01 L 355.79,559.31 L 357.24,558.21 L 357.99,557.71 L 359.63,557.02 L 360.46,556.72 L 362.21,556.44 L 363.10,556.35 M 564.76,556.48 L 566.06,556.73 L 568.08,557.28 L 569.00,557.58 L 570.32,558.27 L 570.90,558.63 L 571.60,559.50 L 572.00,561.04 L 572.00,561.61 L 571.67,562.37 L 571.45,562.68 L 570.66,562.91 L 570.21,562.96 L 568.96,562.66 L 566.55,561.61 L 565.72,561.18 L 564.13,560.77 L 563.36,560.63 L 562.03,560.78 L 561.42,560.92 L 560.56,561.58 L 560.00,563.10 L 560.00,563.71 L 560.69,564.63 L 562.75,565.52 L 563.13,565.60 L 564.09,565.87 L 564.60,566.02 L 565.72,566.41 L 569.00,567.79 L 569.72,568.14 L 570.78,568.79 L 571.25,569.12 L 571.89,569.85 L 572.17,570.24 L 572.51,571.19 L 572.80,573.05 L 572.90,574.27 L 572.59,576.12 L 571.30,578.17 L 570.65,578.74 L 568.85,579.57 L 567.90,579.93 L 565.74,580.32 L 564.65,580.45 L 562.46,580.35 L 561.39,580.24 L 559.50,579.61 L 558.48,579.17 L 556.85,578.16 L 556.10,577.65 L 555.08,576.59 L 554.65,576.07 L 554.34,575.08 L 554.79,573.81 L 555.20,573.40 L 556.22,573.33 L 556.50,573.37 L 557.19,573.64 L 558.41,574.35 L 559.03,574.76 L 560.83,575.37 L 561.77,575.64 L 563.82,575.93 L 564.82,576.04 L 566.58,575.96 L 566.97,575.92 L 567.62,575.75 L 568.30,575.37 L 568.64,575.02 L 568.60,574.13 L 568.47,573.66 L 567.60,572.66 L 567.08,572.16 L 565.58,571.22 L 562.81,570.08 L 561.77,569.77 L 560.01,569.10 L 559.18,568.75 L 557.84,568.00 L 557.22,567.61 L 556.30,566.78 L 555.89,566.35 L 555.39,565.44 L 555.19,564.97 L 555.11,563.97 L 555.12,563.46 L 555.46,562.38 L 555.68,561.83 L 556.43,560.66 L 558.03,558.82 L 558.69,558.15 L 559.75,557.24 L 560.25,556.85 L 561.17,556.42 L 561.64,556.26 L 562.71,556.22 M 171.72,556.48 L 173.81,557.18 L 174.43,557.41 L 175.46,557.93 L 175.93,558.19 L 176.67,558.78 L 177.00,559.07 L 177.45,559.73 L 177.82,560.79 L 177.91,561.38 L 177.68,562.23 L 177.52,562.59 L 176.90,562.95 L 176.56,563.06 L 175.71,562.87 L 174.33,561.93 L 174.18,561.78 L 173.64,561.54 L 173.34,561.42 L 172.58,561.26 L 169.88,561.18 L 169.25,561.24 L 168.25,561.45 L 167.80,561.57 L 167.16,561.88 L 166.88,562.05 L 166.59,562.44 L 166.48,562.64 L 166.53,563.09 L 166.59,563.32 L 166.97,563.81 L 167.20,564.05 L 167.90,564.55 L 168.30,564.80 L 169.32,565.29 L 171.22,566.00 L 172.57,566.43 L 174.66,567.31 L 175.62,567.77 L 177.04,568.81 L 177.69,569.35 L 178.58,570.66 L 179.50,573.06 L 179.66,573.71 L 179.67,574.92 L 179.62,575.51 L 179.26,576.56 L 179.03,577.07 L 178.33,577.96 L 177.94,578.38 L 176.93,579.08 L 176.39,579.40 L 175.12,579.88 L 174.46,580.09 L 172.96,580.34 L 172.19,580.43 L 170.50,580.41 L 169.64,580.37 L 167.80,580.07 L 166.76,579.86 L 164.98,579.27 L 164.15,578.95 L 162.84,578.18 L 162.25,577.77 L 161.48,576.86 L 161.00,575.38 L 161.00,574.98 L 161.73,574.43 L 162.17,574.21 L 163.40,574.02 L 164.03,573.98 L 165.24,574.19 L 166.50,575.00 L 166.58,575.14 L 167.05,575.39 L 167.32,575.51 L 168.09,575.71 L 171.06,576.00 L 171.85,576.00 L 173.00,575.92 L 173.52,575.86 L 174.21,575.63 L 174.51,575.50 L 174.83,575.08 L 175.00,574.18 L 175.00,573.85 L 174.66,573.20 L 174.42,572.88 L 173.56,572.21 L 173.06,571.87 L 171.62,571.14 L 168.75,569.93 L 167.97,569.62 L 166.70,569.12 L 166.10,568.88 L 165.15,568.46 L 164.27,568.06 L 163.29,567.30 L 162.90,566.90 L 162.60,565.84 L 162.50,563.50 L 162.50,562.59 L 162.61,561.29 L 162.69,560.70 L 163.10,559.84 L 163.36,559.44 L 164.25,558.76 L 166.31,557.64 L 167.17,557.22 L 168.46,556.68 L 169.07,556.46 L 170.10,556.31 L 170.62,556.28 M 125.28,557.16 L 126.81,557.36 L 127.51,557.49 L 128.66,557.95 L 130.28,559.01 L 131.14,559.68 L 132.48,561.50 L 133.09,562.48 L 133.90,564.74 L 134.23,565.90 L 134.43,568.37 L 133.98,572.06 L 133.78,572.80 L 133.33,574.08 L 133.10,574.69 L 132.54,575.72 L 132.24,576.21 L 131.52,577.02 L 131.14,577.40 L 130.23,578.02 L 129.74,578.31 L 128.58,578.77 L 127.97,578.98 L 126.52,579.30 L 125.75,579.44 L 123.97,579.64 L 120.86,579.85 L 112.93,580.21 L 113.22,568.86 L 113.50,557.50 L 120.56,557.21 L 122.04,557.15 L 124.27,557.14 M 601.01,557.13 L 604.25,557.22 L 605.29,557.24 L 607.08,557.31 L 607.93,557.34 L 609.36,557.42 L 610.04,557.46 L 611.15,557.56 L 611.67,557.61 L 612.49,557.74 L 613.26,557.87 L 614.07,558.24 L 614.50,559.00 L 614.50,559.26 L 614.25,559.70 L 614.09,559.90 L 613.49,560.22 L 613.15,560.36 L 612.17,560.58 L 610.25,560.81 L 606.00,561.11 L 606.00,571.53 L 605.99,573.21 L 605.98,574.00 L 605.94,575.33 L 605.92,575.95 L 605.85,576.98 L 605.81,577.46 L 605.71,578.21 L 605.60,578.90 L 605.24,579.62 L 604.47,580.00 L 604.05,580.00 L 603.23,579.59 L 602.85,579.34 L 602.40,578.60 L 602.25,578.22 L 602.08,577.22 L 602.05,575.85 L 602.08,575.67 L 602.11,574.80 L 602.13,574.29 L 602.15,572.91 L 602.12,567.75 L 602.09,566.15 L 602.15,566.65 L 602.42,567.05 L 603.06,567.67 L 603.50,567.67 L 604.55,567.25 L 604.94,566.67 L 604.97,566.34 L 604.92,565.66 L 604.72,565.40 L 604.20,564.95 L 603.75,564.92 L 603.00,564.76 L 603.25,564.54 L 603.75,564.34 L 604.63,563.72 L 605.00,563.19 L 605.00,562.95 L 604.56,562.49 L 603.91,562.48 L 603.50,562.64 L 602.44,563.70 L 602.06,564.66 L 602.00,561.00 L 597.16,561.00 L 595.96,560.92 L 595.43,560.86 L 594.74,560.62 L 594.45,560.48 L 594.15,560.00 L 594.00,558.97 L 594.00,558.48 L 594.23,557.84 L 594.33,557.70 L 594.68,557.49 L 594.88,557.40 L 595.47,557.26 L 595.81,557.21 L 596.73,557.14 L 597.23,557.11 L 598.54,557.10 L 599.25,557.10 M 336.01,557.13 L 339.25,557.22 L 340.29,557.24 L 342.08,557.31 L 342.93,557.34 L 344.36,557.42 L 345.04,557.46 L 346.15,557.56 L 346.67,557.61 L 347.49,557.74 L 348.26,557.87 L 349.07,558.24 L 349.50,559.00 L 349.50,559.26 L 349.25,559.70 L 349.09,559.90 L 348.49,560.22 L 348.15,560.36 L 347.17,560.58 L 345.25,560.81 L 341.00,561.11 L 341.00,571.50 L 340.99,573.13 L 340.98,573.91 L 340.94,575.22 L 340.91,575.84 L 340.85,576.87 L 340.81,577.34 L 340.71,578.11 L 340.60,578.82 L 340.27,579.59 L 339.56,580.00 L 339.16,580.00 L 338.37,579.73 L 338.01,579.56 L 337.54,579.07 L 337.46,578.94 L 337.35,578.03 L 337.30,577.48 L 337.24,575.89 L 337.23,575.03 L 337.24,572.97 L 337.34,569.57 L 337.72,561.00 L 332.43,561.00 L 331.11,560.93 L 330.53,560.87 L 329.79,560.63 L 329.47,560.49 L 329.16,560.02 L 329.00,558.97 L 329.00,558.48 L 329.23,557.84 L 329.33,557.70 L 329.68,557.49 L 329.88,557.40 L 330.47,557.26 L 330.81,557.21 L 331.73,557.14 L 332.23,557.11 L 333.54,557.10 L 334.25,557.10 M 630.34,557.51 L 631.05,557.52 L 632.23,557.56 L 633.35,557.61 L 634.83,557.79 L 635.47,557.91 L 636.14,558.25 L 636.50,559.00 L 636.50,559.29 L 636.19,559.73 L 635.98,559.93 L 635.16,560.24 L 634.67,560.38 L 633.23,560.58 L 630.25,560.80 L 629.51,560.83 L 628.29,560.90 L 627.72,560.94 L 626.79,561.02 L 625.93,561.11 L 624.92,561.41 L 624.50,561.59 L 624.15,562.18 L 624.00,563.55 L 624.00,564.10 L 624.12,564.87 L 624.22,565.20 L 624.69,565.61 L 624.99,565.78 L 626.00,565.93 L 628.33,566.00 L 629.52,566.00 L 631.59,566.19 L 632.04,566.25 L 632.73,566.40 L 633.32,566.66 L 633.68,567.01 L 633.59,567.77 L 633.43,568.15 L 632.51,568.86 L 631.97,569.19 L 630.48,569.68 L 627.88,570.00 L 626.97,570.00 L 625.74,570.07 L 625.20,570.13 L 624.57,570.44 L 624.32,570.64 L 624.09,571.34 L 624.00,573.00 L 624.00,573.73 L 624.09,574.70 L 624.18,575.12 L 624.66,575.60 L 624.97,575.79 L 626.11,575.94 L 626.45,575.97 L 627.31,575.99 L 628.88,576.00 L 629.89,576.00 L 631.37,576.08 L 632.04,576.14 L 632.94,576.38 L 633.34,576.53 L 633.83,576.99 L 634.29,578.00 L 634.41,578.47 L 634.39,579.10 L 634.31,579.38 L 633.62,579.70 L 633.39,579.77 L 632.74,579.86 L 632.39,579.90 L 631.45,579.95 L 630.95,579.97 L 629.69,579.99 L 627.37,580.00 L 626.06,580.00 L 623.97,579.92 L 623.01,579.87 L 621.57,579.69 L 620.93,579.58 L 620.09,579.28 L 619.73,579.11 L 619.43,578.68 L 619.36,578.50 L 619.26,577.38 L 619.21,576.72 L 619.16,574.83 L 619.14,573.81 L 619.14,571.39 L 619.21,567.43 L 619.25,566.27 L 619.36,566.36 L 619.77,566.48 L 620.11,566.38 L 620.91,566.09 L 621.50,565.82 L 623.27,564.54 L 624.00,563.50 L 624.00,563.06 L 623.33,561.81 L 622.28,561.29 L 621.50,561.23 L 620.20,561.23 L 619.62,561.39 L 619.44,561.59 L 619.38,561.69 L 619.50,557.50 L 628.86,557.50 M 242.21,557.36 L 242.32,557.47 L 242.51,557.88 L 242.59,558.12 L 242.72,558.81 L 242.78,559.20 L 242.86,560.24 L 242.90,560.81 L 242.95,562.26 L 242.97,563.04 L 242.99,564.96 L 243.00,568.43 L 243.00,569.60 L 242.99,571.61 L 242.98,572.57 L 242.94,574.19 L 242.92,574.95 L 242.85,576.20 L 242.82,576.79 L 242.72,577.72 L 242.67,578.16 L 242.53,578.81 L 242.46,579.10 L 242.28,579.51 L 241.57,580.00 L 241.18,580.00 L 240.11,579.55 L 239.58,579.28 L 238.62,578.47 L 238.41,578.26 L 237.69,577.40 L 237.29,576.90 L 236.28,575.59 L 232.80,570.81 L 232.35,570.18 L 231.59,569.11 L 231.23,568.61 L 230.62,567.80 L 230.04,567.05 L 229.26,566.26 L 228.92,565.96 L 228.51,565.99 L 228.18,566.84 L 228.08,567.55 L 227.56,568.42 L 227.26,568.77 L 226.54,568.93 L 226.17,568.92 L 225.45,568.37 L 224.63,566.75 L 224.33,565.63 L 224.05,563.65 L 223.96,562.70 L 224.11,561.10 L 224.23,560.35 L 224.79,559.18 L 226.09,557.95 L 226.66,557.65 L 227.63,557.26 L 228.40,557.17 L 229.15,558.27 L 230.56,560.29 L 231.24,561.27 L 232.50,563.04 L 233.11,563.90 L 234.21,565.40 L 234.74,566.12 L 235.67,567.35 L 236.12,567.92 L 236.87,568.86 L 237.22,569.29 L 237.79,569.92 L 238.05,570.19 L 238.41,570.51 L 238.68,570.59 L 238.56,571.33 L 238.50,572.22 L 238.51,572.54 L 238.55,573.09 L 238.62,573.20 L 239.04,573.80 L 239.21,573.86 L 239.55,573.81 L 239.72,573.48 L 240.06,572.60 L 240.27,571.78 L 240.48,570.91 L 240.60,570.36 L 240.85,569.21 L 241.00,568.52 L 241.53,565.60 L 241.67,564.16 L 241.64,563.61 L 241.50,562.59 L 241.31,562.13 L 240.86,561.25 L 240.51,560.77 L 239.70,559.64 L 239.90,558.70 L 240.04,558.20 L 240.45,557.62 L 241.30,557.18 L 241.68,557.11 M 209.86,556.57 L 210.89,556.78 L 212.81,557.64 L 215.55,559.63 L 216.06,560.10 L 216.77,560.88 L 217.08,561.24 L 217.41,561.84 L 217.54,562.13 L 217.52,562.62 L 217.12,563.28 L 216.91,563.49 L 216.44,563.74 L 216.20,563.83 L 215.63,563.82 L 215.33,563.78 L 214.59,563.51 L 213.24,562.81 L 212.39,562.31 L 210.81,561.60 L 210.04,561.29 L 208.54,560.96 L 207.80,560.84 L 206.27,560.87 L 203.83,561.30 L 203.20,561.46 L 202.15,562.11 L 201.66,562.47 L 200.87,563.46 L 200.51,563.98 L 200.01,565.21 L 199.79,565.84 L 199.57,567.21 L 199.50,567.90 L 199.57,569.33 L 199.65,570.03 L 200.04,571.41 L 200.27,572.09 L 200.98,573.32 L 202.40,574.92 L 202.72,575.19 L 203.55,575.61 L 203.99,575.80 L 205.00,576.08 L 206.04,576.33 L 208.34,576.39 L 209.47,576.35 L 211.50,575.87 L 211.96,575.71 L 212.74,575.30 L 213.59,574.54 L 214.17,573.76 L 214.76,572.52 L 214.96,571.96 L 214.79,571.12 L 214.61,570.75 L 213.64,570.25 L 211.25,569.81 L 210.62,569.76 L 209.60,569.58 L 209.13,569.48 L 208.43,569.21 L 208.12,569.06 L 207.73,568.68 L 207.50,568.00 L 207.50,567.72 L 207.75,567.29 L 207.92,567.09 L 208.58,566.82 L 208.97,566.71 L 210.12,566.57 L 212.50,566.50 L 217.50,566.50 L 217.80,571.66 L 217.85,572.49 L 217.82,573.93 L 217.79,574.61 L 217.57,575.77 L 217.43,576.31 L 216.99,577.22 L 216.74,577.64 L 216.05,578.32 L 215.67,578.64 L 214.70,579.11 L 214.17,579.33 L 212.88,579.63 L 212.19,579.76 L 210.55,579.91 L 207.68,580.00 L 206.34,580.00 L 204.41,579.90 L 203.53,579.83 L 202.19,579.46 L 201.56,579.23 L 200.40,578.44 L 199.81,577.97 L 198.40,576.60 L 197.69,575.89 L 196.68,574.71 L 196.23,574.13 L 195.64,573.02 L 195.39,572.46 L 195.14,571.19 L 195.00,568.85 L 195.01,567.32 L 195.51,564.66 L 195.85,563.39 L 197.02,561.28 L 197.69,560.30 L 199.51,558.76 L 202.94,557.14 L 204.24,556.75 L 206.60,556.41 L 207.75,556.31 M 188.19,557.34 L 188.31,557.45 L 188.50,557.85 L 188.59,558.08 L 188.72,558.76 L 188.78,559.15 L 188.86,560.18 L 188.90,560.75 L 188.95,562.21 L 188.97,562.99 L 188.99,564.92 L 189.00,568.43 L 189.00,570.02 L 188.94,572.92 L 188.90,574.30 L 188.78,576.60 L 188.71,577.64 L 188.54,579.08 L 188.50,579.37 L 188.40,579.75 L 188.25,579.98 L 188.04,579.98 L 187.34,579.73 L 186.97,579.58 L 186.21,579.15 L 185.98,579.00 L 185.63,578.22 L 185.47,577.74 L 185.28,576.19 L 185.20,575.30 L 185.15,572.83 L 185.14,572.15 L 185.16,570.58 L 185.21,567.93 L 185.24,566.81 L 185.31,564.90 L 185.34,564.00 L 185.42,562.50 L 185.47,561.80 L 185.57,560.66 L 185.62,560.13 L 185.76,559.30 L 185.90,558.54 L 186.33,557.73 L 187.25,557.19 L 187.65,557.11 M 426.08,556.53 L 427.31,556.84 L 429.56,558.01 L 430.63,558.68 L 432.45,560.48 L 433.29,561.44 L 434.50,563.75 L 435.01,564.95 L 435.44,567.66 L 435.48,568.36 L 435.40,569.81 L 434.99,572.05 L 434.62,573.42 L 433.48,575.60 L 432.84,576.60 L 431.12,578.07 L 430.18,578.72 L 427.85,579.52 L 423.62,579.97 L 422.73,579.96 L 421.17,579.84 L 420.42,579.75 L 419.09,579.46 L 417.81,579.13 L 415.82,577.93 L 415.11,577.41 L 413.95,576.14 L 413.41,575.48 L 412.57,573.99 L 412.19,573.23 L 411.69,571.59 L 411.48,570.76 L 411.31,569.05 L 411.27,568.19 L 411.43,566.47 L 411.56,565.61 L 412.07,563.96 L 412.37,563.15 L 413.22,561.63 L 414.90,559.59 L 415.46,559.06 L 416.65,558.18 L 417.25,557.77 L 418.49,557.15 L 419.74,556.59 L 422.30,556.18 L 423.59,556.09 M 144.81,566.46 L 145.72,566.71 L 146.33,566.93 L 149.08,567.69 L 151.04,568.00 L 151.77,568.00 L 152.91,567.92 L 153.41,567.80 L 153.54,567.71 L 153.72,567.52 L 153.69,567.40 L 153.69,567.40 L 153.91,567.63 L 154.02,568.13 L 154.01,568.38 L 153.66,568.84 L 153.43,569.06 L 152.61,569.43 L 152.15,569.61 L 150.87,569.85 L 148.44,570.00 L 147.38,570.00 L 145.95,570.06 L 145.34,570.12 L 144.63,570.42 L 144.34,570.61 L 144.10,571.30 L 144.00,572.95 L 144.00,573.68 L 144.11,574.65 L 144.21,575.07 L 144.80,575.56 L 145.20,575.77 L 146.66,575.98 L 147.10,576.03 L 148.20,576.10 L 150.25,576.20 L 151.44,576.26 L 153.23,576.42 L 154.04,576.51 L 155.16,576.76 L 155.64,576.90 L 156.19,577.27 L 156.50,578.00 L 156.50,578.26 L 155.80,578.72 L 155.35,578.93 L 153.95,579.29 L 153.18,579.45 L 151.31,579.69 L 150.35,579.80 L 148.27,579.92 L 147.23,579.97 L 145.19,579.95 L 144.20,579.93 L 142.44,579.77 L 141.63,579.68 L 140.41,579.37 L 139.89,579.19 L 139.45,578.72 L 139.37,578.53 L 139.27,577.41 L 139.22,576.74 L 139.16,574.84 L 139.16,574.60 L 139.21,575.24 L 139.35,576.71 L 139.43,577.13 L 139.61,577.73 L 139.70,577.63 L 139.96,577.10 L 140.09,576.52 L 140.13,576.16 L 140.24,574.52 L 140.18,573.60 L 140.51,570.59 L 141.21,568.73 L 141.74,568.07 L 142.77,566.97 L 143.38,566.53 L 143.71,566.45 L 144.39,566.37 M 526.80,557.19 L 527.42,557.26 L 528.30,557.55 L 528.70,557.74 L 529.31,558.52 L 529.59,559.00 L 530.10,560.60 L 530.23,561.06 L 530.51,562.20 L 530.97,564.26 L 531.15,565.08 L 531.53,566.50 L 531.72,567.17 L 532.12,568.28 L 532.31,568.80 L 532.70,569.59 L 532.89,569.95 L 533.25,570.39 L 533.43,570.57 L 533.75,570.66 L 533.90,570.65 L 534.15,570.35 L 534.26,570.15 L 534.43,569.45 L 534.57,567.92 L 534.61,566.40 L 534.91,563.81 L 535.09,562.59 L 535.63,560.68 L 535.94,559.82 L 536.70,558.70 L 538.05,558.00 L 538.65,558.00 L 539.40,558.10 L 539.55,558.17 L 539.73,558.46 L 539.80,558.63 L 539.83,559.22 L 539.82,559.55 L 539.69,560.53 L 539.60,561.08 L 539.31,562.56 L 539.14,563.37 L 538.69,565.45 L 537.82,569.35 L 537.54,570.59 L 537.02,572.72 L 536.76,573.73 L 536.26,575.40 L 536.02,576.19 L 535.53,577.44 L 535.29,578.01 L 534.80,578.85 L 534.56,579.22 L 534.06,579.67 L 533.81,579.85 L 533.29,579.93 L 533.02,579.93 L 532.46,579.66 L 531.55,578.89 L 531.34,578.66 L 530.91,577.92 L 530.70,577.51 L 530.27,576.48 L 529.86,575.40 L 529.16,572.81 L 528.85,571.51 L 528.51,569.09 L 528.45,568.54 L 528.45,567.61 L 528.61,566.57 L 528.78,566.14 L 528.72,565.46 L 528.15,565.00 L 528.00,565.00 L 527.64,565.34 L 527.46,565.55 L 527.07,566.25 L 525.98,569.25 L 525.74,570.16 L 525.34,571.70 L 525.15,572.43 L 524.82,573.64 L 524.51,574.77 L 524.04,576.26 L 523.82,576.91 L 523.43,577.75 L 522.76,578.75 L 522.47,579.11 L 521.97,579.58 L 521.72,579.77 L 521.22,579.92 L 520.97,579.95 L 520.39,579.79 L 520.07,579.67 L 519.30,579.21 L 519.14,579.10 L 518.67,578.17 L 518.42,577.60 L 517.84,575.92 L 517.54,575.00 L 516.92,572.77 L 516.02,569.07 L 515.73,567.78 L 515.17,565.37 L 514.89,564.21 L 514.41,562.23 L 514.17,561.31 L 513.81,559.98 L 513.47,558.95 L 513.31,558.69 L 513.63,558.18 L 513.87,557.94 L 514.69,557.59 L 515.13,557.44 L 516.05,557.36 L 517.11,557.72 L 517.22,557.82 L 517.52,558.49 L 517.69,558.89 L 518.07,560.03 L 519.29,564.50 L 519.48,565.33 L 519.79,566.68 L 519.93,567.30 L 520.16,568.21 L 520.28,568.61 L 520.48,569.05 L 520.58,569.20 L 520.79,569.12 L 520.90,569.01 L 521.15,568.38 L 521.29,567.99 L 521.63,566.77 L 521.81,566.08 L 522.28,564.22 L 523.16,560.69 L 523.37,559.85 L 523.75,558.68 L 523.94,558.18 L 524.40,557.57 L 524.66,557.33 L 525.35,557.15 M 499.89,556.42 L 501.03,556.63 L 503.23,557.57 L 506.27,559.81 L 506.94,560.48 L 507.98,562.05 L 508.46,562.87 L 509.11,564.65 L 509.39,565.56 L 509.66,567.45 L 509.75,568.40 L 509.66,570.29 L 509.56,571.23 L 509.11,573.01 L 508.84,573.88 L 508.05,575.45 L 507.61,576.20 L 506.47,577.46 L 504.40,578.86 L 503.58,579.24 L 501.36,579.69 L 500.19,579.87 L 497.63,579.94 L 496.36,579.93 L 493.95,579.61 L 492.80,579.40 L 491.00,578.71 L 490.21,578.31 L 488.84,577.03 L 488.20,576.32 L 487.18,574.52 L 486.72,573.57 L 486.11,571.40 L 485.73,567.86 L 485.73,566.55 L 486.30,564.20 L 486.67,563.07 L 487.88,561.13 L 488.55,560.21 L 490.24,558.73 L 491.14,558.05 L 493.18,557.09 L 494.23,556.68 L 496.47,556.29 L 497.60,556.18 M 473.78,557.09 L 474.70,557.15 L 476.09,557.40 L 476.73,557.55 L 477.73,558.02 L 479.00,559.00 L 479.64,559.64 L 480.44,561.08 L 480.76,561.82 L 480.91,563.40 L 480.90,564.20 L 480.40,565.86 L 478.92,568.37 L 476.84,571.01 L 479.05,574.58 L 479.40,575.15 L 479.92,576.16 L 480.15,576.64 L 480.43,577.47 L 480.54,577.85 L 480.56,578.46 L 480.29,579.11 L 479.92,579.48 L 479.07,579.69 L 478.62,579.71 L 477.60,579.21 L 477.06,578.86 L 475.84,577.63 L 473.76,574.95 L 473.31,574.30 L 472.48,573.24 L 472.08,572.75 L 471.36,572.03 L 471.01,571.70 L 470.39,571.31 L 470.09,571.15 L 469.57,571.09 L 469.33,571.10 L 468.91,571.36 L 468.71,571.54 L 468.39,572.14 L 468.25,572.48 L 468.03,573.41 L 467.81,575.17 L 467.73,576.16 L 467.41,577.71 L 467.22,578.40 L 466.71,579.31 L 466.43,579.69 L 465.78,579.90 L 465.43,579.91 L 464.69,579.35 L 464.64,579.31 L 464.55,578.99 L 464.50,578.81 L 464.42,578.23 L 464.34,577.60 L 464.20,575.69 L 464.14,574.64 L 464.05,572.09 L 464.00,567.83 L 464.00,557.00 L 471.79,557.00 M 278.11,557.27 L 278.24,557.38 L 278.46,557.76 L 278.56,557.98 L 278.70,558.63 L 278.77,558.99 L 278.86,559.99 L 278.90,560.53 L 278.95,561.94 L 278.97,562.70 L 278.99,564.58 L 279.00,568.03 L 279.00,569.17 L 278.99,571.13 L 278.98,572.06 L 278.94,573.63 L 278.91,574.37 L 278.84,575.59 L 278.81,576.16 L 278.70,577.08 L 278.58,577.94 L 278.22,578.92 L 277.42,579.67 L 277.20,579.75 L 276.66,579.70 L 276.37,579.64 L 275.70,579.32 L 275.35,579.13 L 274.56,578.55 L 274.16,578.23 L 273.28,577.40 L 272.38,576.52 L 270.37,574.11 L 267.15,569.64 L 264.50,565.62 L 264.00,572.55 L 263.90,573.94 L 263.68,576.00 L 263.56,576.92 L 263.25,578.17 L 263.08,578.71 L 262.64,579.35 L 261.75,579.81 L 261.26,579.91 L 260.35,579.64 L 259.94,579.45 L 259.46,578.75 L 259.38,578.56 L 259.27,577.43 L 259.22,576.76 L 259.17,574.85 L 259.14,573.82 L 259.14,573.42 L 259.17,574.00 L 259.26,574.70 L 259.46,575.90 L 259.59,576.19 L 259.87,576.58 L 260.05,576.47 L 260.43,575.90 L 260.60,575.27 L 260.64,574.85 L 260.68,573.93 L 260.65,573.39 L 260.56,572.24 L 260.46,571.60 L 260.25,569.57 L 260.24,568.48 L 260.30,568.05 L 260.49,567.26 L 260.66,566.95 L 261.04,566.38 L 261.32,566.15 L 262.06,565.40 L 262.30,564.92 L 262.30,564.63 L 262.22,563.99 L 262.06,563.56 L 261.66,562.61 L 261.33,561.96 L 260.16,559.87 L 259.83,559.38 L 259.72,559.25 L 259.78,558.96 L 259.94,558.27 L 260.44,557.62 L 261.61,557.20 L 262.02,557.14 L 262.86,557.39 L 263.29,557.58 L 264.29,558.44 L 264.82,558.96 L 266.11,560.56 L 268.54,563.95 L 269.20,564.92 L 270.47,566.69 L 271.09,567.53 L 272.18,568.93 L 272.69,569.57 L 273.48,570.44 L 274.18,571.00 L 274.29,571.00 L 274.50,570.45 L 274.59,570.09 L 274.76,568.94 L 274.83,568.31 L 274.94,566.72 L 275.00,564.00 L 275.00,563.21 L 275.01,561.88 L 275.02,561.26 L 275.06,560.23 L 275.10,559.28 L 275.32,558.12 L 275.46,557.65 L 275.92,557.20 L 277.00,557.00 L 277.47,557.00 M 252.65,557.80 L 252.77,557.92 L 252.98,558.32 L 253.07,558.56 L 253.21,559.22 L 253.27,559.59 L 253.36,560.59 L 253.40,561.14 L 253.45,562.53 L 253.47,563.28 L 253.49,565.13 L 253.50,568.49 L 253.50,569.67 L 253.49,571.67 L 253.48,572.62 L 253.44,574.19 L 253.42,574.93 L 253.35,576.14 L 253.31,576.70 L 253.21,577.57 L 253.09,578.38 L 252.70,579.24 L 251.84,579.79 L 251.39,579.88 L 250.54,579.78 L 250.15,579.69 L 249.72,579.31 L 249.69,579.25 L 249.63,578.93 L 249.60,578.74 L 249.56,578.16 L 249.51,577.53 L 249.46,575.65 L 249.44,574.63 L 249.44,572.14 L 249.51,568.00 L 249.54,566.81 L 249.60,564.82 L 249.63,563.89 L 249.70,562.36 L 249.74,561.64 L 249.84,560.51 L 249.89,559.99 L 250.03,559.19 L 250.17,558.47 L 250.62,557.81 L 251.63,557.50 L 252.06,557.50 M 385.50,576.34 L 385.43,577.12 L 385.20,578.23 L 385.06,578.72 L 384.69,579.32 L 383.95,579.76 L 383.53,579.85 L 382.65,579.77 L 382.24,579.70 L 381.70,579.37 L 381.59,579.26 L 381.49,578.73 L 383.50,577.82 L 385.26,576.40 L 385.53,575.89 M 386.36,557.29 L 387.69,558.25 L 387.80,558.42 L 388.21,559.20 L 388.44,559.65 L 389.04,560.86 L 391.13,565.38 L 393.77,571.26 L 397.13,564.38 L 397.49,563.66 L 398.11,562.43 L 398.41,561.84 L 398.95,560.87 L 399.47,559.95 L 400.34,558.77 L 400.77,558.28 L 401.60,557.76 L 403.00,557.50 L 405.50,557.50 L 405.78,568.83 L 405.82,570.13 L 405.86,572.31 L 405.88,573.33 L 405.89,574.98 L 405.89,575.76 L 405.86,576.97 L 405.83,577.52 L 405.75,578.35 L 405.70,578.72 L 405.55,579.23 L 405.46,579.45 L 405.25,579.70 L 404.28,579.82 L 403.92,579.75 L 403.37,579.36 L 403.12,579.10 L 402.75,578.18 L 402.58,577.64 L 402.32,575.99 L 402.00,572.49 L 401.50,565.50 L 399.25,570.38 L 398.63,571.72 L 397.66,574.04 L 397.46,574.55 L 397.18,575.33 L 397.00,576.00 L 397.00,576.35 L 396.55,577.06 L 396.27,577.40 L 395.45,577.98 L 395.02,578.23 L 394.09,578.53 L 392.84,578.49 L 392.50,578.36 L 391.88,577.81 L 391.56,577.45 L 390.84,576.17 L 390.64,575.79 L 390.20,574.84 L 389.97,574.33 L 389.45,573.08 L 389.17,572.41 L 388.54,570.82 L 387.44,568.00 L 387.25,567.53 L 386.95,566.78 L 386.81,566.44 L 386.57,566.00 L 386.46,565.81 L 386.29,565.71 L 386.21,565.70 L 386.08,565.96 L 386.02,566.14 L 385.93,566.81 L 385.88,567.20 L 385.82,568.31 L 385.78,568.93 L 385.73,570.52 L 385.67,572.67 L 385.58,572.49 L 384.77,571.25 L 384.08,570.77 L 383.30,569.97 L 382.81,569.24 L 382.60,568.80 L 381.85,566.91 L 381.74,565.96 L 381.56,565.27 L 381.45,565.50 L 381.40,565.93 L 381.30,567.00 L 381.26,567.81 L 381.18,569.60 L 381.16,570.73 L 381.10,573.80 L 381.07,572.99 L 381.04,571.87 L 381.02,569.48 L 381.01,568.27 L 381.04,565.90 L 381.06,564.74 L 381.14,562.64 L 381.19,561.64 L 381.33,560.07 L 381.61,558.58 L 381.79,558.11 L 382.70,557.49 L 383.21,557.23 L 384.49,557.04 L 385.13,557.01 M 670.02,557.56 L 670.82,557.82 L 671.58,558.00 L 671.64,558.00 L 671.74,558.36 L 671.79,558.58 L 671.88,559.32 L 672.00,562.50 L 672.00,567.00 L 678.75,567.00 L 679.97,566.99 L 680.54,566.99 L 681.45,566.95 L 682.29,566.90 L 683.24,566.63 L 683.61,566.44 L 683.90,565.76 L 684.00,564.08 L 684.00,563.10 L 684.17,561.47 L 684.28,560.72 L 684.67,559.57 L 684.89,559.05 L 685.49,558.40 L 686.61,558.00 L 686.88,558.00 L 687.29,558.45 L 687.47,558.76 L 687.74,559.98 L 687.86,560.71 L 688.01,562.90 L 688.04,563.52 L 688.09,564.97 L 688.15,567.50 L 688.17,568.81 L 688.22,571.29 L 688.24,572.49 L 688.29,574.58 L 688.31,575.55 L 688.35,577.02 L 688.40,578.25 L 688.43,578.59 L 687.88,579.13 L 686.50,579.50 L 686.09,579.50 L 685.48,579.33 L 685.21,579.20 L 684.83,578.68 L 684.66,578.37 L 684.43,577.38 L 684.19,575.25 L 683.89,571.00 L 672.00,571.00 L 672.00,576.61 L 671.92,578.11 L 671.85,578.76 L 671.55,579.46 L 671.36,579.72 L 670.72,579.78 L 670.35,579.75 L 669.25,579.34 L 669.03,579.25 L 668.68,578.49 L 668.52,578.01 L 668.29,576.39 L 668.19,575.47 L 668.07,572.89 L 668.05,572.17 L 668.02,570.55 L 668.00,567.81 L 668.00,566.60 L 668.01,564.57 L 668.02,563.61 L 668.05,562.04 L 668.07,561.31 L 668.14,560.14 L 668.17,559.60 L 668.27,558.79 L 668.33,558.42 L 668.47,557.91 L 668.55,557.69 L 668.75,557.44 L 669.58,557.39 M 449.55,557.16 L 450.38,557.18 L 451.85,557.33 L 452.55,557.42 L 453.77,557.70 L 454.35,557.86 L 455.32,558.29 L 455.78,558.53 L 456.51,559.10 L 456.84,559.41 L 457.34,560.13 L 457.56,560.51 L 457.84,561.39 L 458.00,562.89 L 458.00,563.67 L 457.37,565.69 L 455.87,568.44 L 453.74,571.15 L 455.99,574.19 L 456.44,574.81 L 457.05,575.75 L 457.30,576.17 L 457.53,576.81 L 457.59,577.10 L 457.45,577.54 L 456.87,578.10 L 456.32,578.45 L 455.47,578.80 L 455.08,578.90 L 454.35,578.65 L 453.97,578.44 L 453.11,577.46 L 451.38,575.00 L 450.93,574.32 L 450.09,573.22 L 449.67,572.72 L 448.90,571.96 L 448.52,571.63 L 447.83,571.22 L 447.50,571.05 L 446.90,570.98 L 446.62,570.99 L 446.12,571.26 L 445.89,571.44 L 445.50,572.05 L 445.32,572.40 L 445.06,573.36 L 444.81,575.17 L 444.73,576.29 L 444.36,577.92 L 444.15,578.64 L 443.56,579.45 L 443.24,579.75 L 442.46,579.70 L 442.05,579.57 L 441.11,578.64 L 440.92,578.40 L 440.61,577.39 L 440.48,576.80 L 440.30,575.09 L 440.25,574.48 L 440.25,574.48 L 440.42,575.53 L 440.52,575.85 L 440.74,576.33 L 440.86,576.36 L 441.12,576.27 L 441.25,576.01 L 441.52,575.35 L 441.65,574.80 L 441.93,573.55 L 442.06,572.71 L 442.31,570.88 L 442.43,569.75 L 442.61,567.33 L 442.64,566.01 L 442.60,565.52 L 442.50,564.65 L 442.40,564.39 L 442.17,564.00 L 442.01,564.00 L 441.30,563.69 L 441.00,563.23 L 441.00,562.94 L 441.29,562.37 L 441.72,562.33 L 442.00,562.50 L 442.71,562.63 L 443.00,562.35 L 443.00,562.06 L 442.56,561.31 L 441.91,561.00 L 441.50,561.00 L 440.75,561.35 L 440.41,562.01 L 440.36,562.26 L 440.50,557.50 L 446.85,557.20 L 447.81,557.15 M 226.43,571.25 L 226.98,572.00 L 227.40,572.64 L 227.84,573.86 L 228.00,574.44 L 227.93,575.45 L 227.84,575.92 L 227.31,576.58 L 226.00,577.00 L 225.38,577.00 L 224.54,576.53 L 224.20,576.23 L 224.02,575.25 L 224.02,574.77 L 224.32,573.57 L 225.02,572.00 L 225.23,571.67 L 225.57,571.25 L 225.73,571.08 L 226.00,571.00 L 226.14,571.00 M 362.70,560.99 L 360.73,561.59 L 360.28,561.78 L 359.49,562.29 L 358.56,563.22 L 358.15,563.80 L 357.57,565.04 L 357.32,565.67 L 357.03,566.97 L 356.92,567.62 L 356.91,568.92 L 356.94,569.56 L 357.20,570.81 L 357.37,571.43 L 357.88,572.58 L 358.17,573.14 L 358.92,574.13 L 359.32,574.61 L 360.30,575.40 L 362.00,576.29 L 362.41,576.44 L 363.09,576.70 L 363.60,576.92 L 363.61,576.93 L 363.88,576.87 L 364.05,576.82 L 364.58,576.66 L 365.16,576.48 L 366.80,575.92 L 367.44,575.70 L 368.54,575.03 L 369.06,574.66 L 369.91,573.76 L 370.29,573.28 L 370.87,572.19 L 371.12,571.62 L 371.42,570.40 L 371.53,569.78 L 371.54,568.48 L 371.51,567.83 L 371.22,566.51 L 371.04,565.85 L 370.44,564.57 L 369.19,562.75 L 368.91,562.42 L 368.17,561.90 L 367.77,561.66 L 366.86,561.32 L 365.91,561.02 L 363.77,560.94 M 421.72,560.53 L 421.08,560.63 L 419.90,561.18 L 419.34,561.51 L 418.35,562.45 L 417.89,562.95 L 417.14,564.18 L 416.80,564.82 L 416.33,566.24 L 416.14,566.97 L 416.00,568.51 L 415.98,569.29 L 416.22,570.85 L 417.07,573.12 L 417.35,573.65 L 418.10,574.52 L 418.51,574.93 L 419.46,575.56 L 419.95,575.85 L 421.05,576.23 L 421.60,576.39 L 422.77,576.52 L 423.95,576.59 L 426.28,575.97 L 426.84,575.74 L 427.87,575.10 L 428.38,574.75 L 429.25,573.85 L 429.75,573.26 L 430.42,572.00 L 430.71,571.35 L 430.98,570.02 L 431.07,569.35 L 430.98,568.01 L 430.88,567.34 L 430.44,566.05 L 430.17,565.42 L 429.41,564.24 L 428.98,563.67 L 427.92,562.67 L 427.35,562.20 L 426.01,561.43 L 423.73,560.61 L 423.03,560.44 M 497.31,560.92 L 496.50,560.99 L 494.95,561.50 L 494.20,561.80 L 492.87,562.72 L 492.25,563.23 L 491.28,564.50 L 490.86,565.18 L 490.40,566.75 L 490.43,569.39 L 490.61,570.31 L 491.25,571.90 L 491.61,572.65 L 492.55,573.89 L 493.04,574.47 L 494.20,575.34 L 494.80,575.72 L 496.10,576.20 L 496.77,576.39 L 498.15,576.46 L 498.84,576.44 L 500.22,576.07 L 500.91,575.83 L 502.22,575.01 L 502.86,574.54 L 504.02,573.24 L 504.65,572.44 L 505.44,570.94 L 505.75,570.20 L 505.90,568.74 L 505.89,568.00 L 505.39,566.45 L 503.93,563.90 L 503.37,563.12 L 502.01,562.04 L 501.30,561.57 L 499.73,561.07 L 498.93,560.89 M 117.00,561.00 L 117.00,576.00 L 122.29,576.00 L 123.65,575.89 L 124.30,575.81 L 125.41,575.53 L 125.94,575.37 L 126.84,574.91 L 127.26,574.65 L 128.00,574.00 L 128.62,573.38 L 129.46,571.60 L 130.00,568.50 L 130.00,567.25 L 129.47,565.22 L 129.11,564.29 L 127.87,562.88 L 127.16,562.25 L 125.21,561.47 L 121.50,561.00 M 239.66,562.36 L 239.67,563.49 L 239.64,564.12 L 239.39,566.77 L 239.25,567.40 L 239.32,566.27 L 239.43,563.79 L 239.46,562.53 L 239.54,561.39 M 401.60,563.53 L 401.52,564.29 L 401.70,564.94 L 402.09,566.02 L 402.36,566.40 L 402.93,567.00 L 403.19,567.00 L 403.82,566.49 L 403.90,565.75 L 403.80,565.32 L 403.51,564.43 L 403.26,564.06 L 402.69,563.40 L 402.33,563.28 M 471.42,561.00 L 469.97,561.06 L 469.34,561.12 L 468.62,561.42 L 468.33,561.61 L 468.09,562.31 L 468.00,564.00 L 468.00,564.66 L 468.09,565.59 L 468.17,565.99 L 468.49,566.49 L 468.70,566.70 L 469.38,566.90 L 470.92,567.00 L 471.72,567.00 L 473.44,566.82 L 474.26,566.71 L 475.42,566.39 L 475.85,566.23 L 476.54,565.26 L 477.00,563.39 L 477.00,562.85 L 476.87,562.10 L 476.77,561.78 L 476.28,561.38 L 475.97,561.22 L 474.92,561.07 L 472.50,561.00 M 448.07,561.00 L 446.78,561.07 L 446.22,561.13 L 445.57,561.44 L 445.31,561.65 L 445.09,562.38 L 445.00,564.13 L 445.00,564.89 L 445.07,565.89 L 445.14,566.32 L 445.50,566.76 L 445.73,566.92 L 446.59,566.94 L 448.66,566.67 L 449.67,566.50 L 451.54,565.96 L 451.96,565.82 L 452.63,565.53 L 452.93,565.38 L 453.30,565.10 L 453.80,564.60 L 454.06,563.61 L 454.08,563.13 L 453.47,562.29 L 453.07,561.91 L 451.72,561.36 L 449.03,561.00 M 548.62,556.22 L 549.26,556.88 L 549.53,557.30 L 549.77,558.68 L 549.58,561.43 L 549.41,562.31 L 548.93,563.62 L 548.68,564.19 L 548.10,564.82 L 547.81,565.05 L 547.25,564.91 L 546.98,564.74 L 546.56,563.75 L 546.25,562.74 L 545.87,561.13 L 545.72,560.38 L 545.66,559.21 L 545.67,558.66 L 545.92,557.84 L 546.65,556.88 L 547.21,556.41 L 548.17,556.21 M 153.04,556.72 L 154.08,556.80 L 154.56,556.85 L 155.30,557.04 L 155.63,557.14 L 156.09,557.43 L 156.29,557.59 L 156.50,557.99 L 156.30,559.66 L 156.21,559.89 L 155.71,560.25 L 155.41,560.42 L 154.45,560.67 L 153.92,560.78 L 152.50,560.92 L 149.82,561.00 L 149.13,561.00 L 147.98,561.01 L 147.44,561.02 L 146.57,561.06 L 145.75,561.10 L 144.82,561.33 L 144.44,561.47 L 144.16,561.97 L 144.18,563.15 L 144.24,563.57 L 144.43,564.02 L 144.37,563.98 L 143.82,563.55 L 142.73,562.61 L 142.19,562.04 L 139.45,559.18 L 139.50,557.50 L 147.50,556.91 L 148.50,556.84 L 150.22,556.75 L 151.03,556.72 L 152.40,556.71 M 148.85,385.09 L 149.58,385.15 L 150.31,385.29 L 150.55,385.38 L 151.00,386.15 L 151.22,386.63 L 151.63,388.21 L 151.84,389.11 L 152.24,391.53 L 152.82,396.16 L 153.31,400.68 L 154.24,408.99 L 154.70,413.02 L 155.55,420.30 L 155.76,422.05 L 156.16,425.36 L 156.35,426.98 L 156.73,430.02 L 156.92,431.50 L 157.27,434.27 L 157.45,435.61 L 157.78,438.09 L 157.94,439.30 L 158.25,441.49 L 158.40,442.55 L 158.69,444.46 L 158.83,445.37 L 159.08,446.98 L 159.21,447.74 L 159.44,449.04 L 159.56,449.66 L 159.76,450.65 L 159.86,451.11 L 160.04,451.79 L 160.13,452.09 L 160.28,452.45 L 160.48,452.63 L 160.76,452.53 L 161.14,452.06 L 161.29,451.23 L 161.27,451.16 L 161.32,450.62 L 161.36,450.29 L 161.51,449.27 L 161.60,448.70 L 161.84,447.26 L 161.97,446.49 L 162.29,444.68 L 162.46,443.73 L 162.85,441.61 L 163.05,440.52 L 163.50,438.15 L 165.01,430.36 L 165.55,427.63 L 166.63,421.86 L 167.16,418.98 L 168.14,413.40 L 168.37,412.04 L 168.80,409.48 L 169.00,408.24 L 169.36,405.95 L 169.53,404.85 L 169.82,402.91 L 170.14,400.50 L 170.33,398.89 L 170.75,396.11 L 170.96,394.80 L 171.43,392.66 L 171.66,391.67 L 172.15,390.22 L 172.91,388.86 L 173.20,388.57 L 174.16,388.07 L 174.72,387.84 L 176.31,387.46 L 177.20,387.28 L 179.53,386.98 L 184.00,386.60 L 185.31,386.52 L 187.78,386.42 L 188.97,386.39 L 191.04,386.39 L 192.00,386.40 L 193.43,386.50 L 194.61,386.74 L 194.77,386.85 L 195.18,387.79 L 195.40,388.36 L 195.90,390.07 L 196.16,391.00 L 196.68,393.25 L 197.44,397.00 L 197.55,397.65 L 197.88,399.34 L 198.06,400.24 L 198.50,402.38 L 198.73,403.51 L 199.27,406.02 L 199.55,407.32 L 200.16,410.14 L 200.78,413.02 L 202.18,419.33 L 202.90,422.52 L 204.37,429.00 L 205.10,432.20 L 206.49,438.22 L 206.83,439.66 L 207.47,442.36 L 207.78,443.67 L 208.35,446.04 L 208.62,447.17 L 209.10,449.13 L 209.33,450.05 L 209.71,451.51 L 209.89,452.18 L 210.15,453.08 L 210.38,453.71 L 210.43,453.77 L 210.59,453.46 L 210.68,453.24 L 210.90,452.42 L 211.01,451.95 L 211.28,450.68 L 211.42,449.99 L 211.73,448.31 L 211.89,447.42 L 212.24,445.39 L 212.42,444.33 L 212.80,442.00 L 213.18,439.60 L 213.99,434.13 L 214.40,431.31 L 215.23,425.31 L 215.64,422.29 L 216.43,416.19 L 216.80,413.16 L 217.48,407.37 L 218.30,399.50 L 219.52,386.50 L 227.01,386.24 L 228.04,386.21 L 230.03,386.22 L 230.99,386.23 L 232.71,386.33 L 233.51,386.39 L 234.76,386.56 L 235.90,386.89 L 236.19,387.08 L 236.53,387.89 L 236.59,388.15 L 236.65,388.85 L 236.67,389.24 L 236.63,390.25 L 236.62,390.48 L 236.27,390.33 L 236.00,390.50 L 235.29,391.21 L 235.00,391.80 L 235.00,392.06 L 235.11,392.55 L 235.29,392.72 L 235.72,393.00 L 236.00,393.00 L 236.41,392.73 L 236.39,392.93 L 236.16,394.75 L 236.03,395.72 L 235.70,398.04 L 235.08,402.15 L 234.79,404.00 L 234.14,407.96 L 233.81,409.98 L 233.08,414.22 L 232.33,418.51 L 230.63,427.62 L 229.77,432.21 L 227.93,441.48 L 227.00,446.09 L 225.15,454.95 L 224.69,457.11 L 223.78,461.27 L 223.34,463.31 L 222.47,467.16 L 222.04,469.04 L 221.23,472.52 L 220.83,474.21 L 220.08,477.25 L 219.72,478.70 L 219.05,481.23 L 218.73,482.42 L 218.17,484.35 L 217.90,485.24 L 217.44,486.52 L 216.91,487.61 L 216.74,487.81 L 215.73,488.15 L 215.14,488.31 L 214.51,488.40 L 214.48,488.28 L 214.27,487.82 L 214.00,487.50 L 212.46,486.44 L 211.12,486.00 L 210.50,486.00 L 208.54,486.44 L 207.34,487.09 L 207.00,487.50 L 206.56,488.08 L 206.52,488.28 L 206.56,488.63 L 206.81,488.74 L 207.47,488.91 L 208.07,488.95 L 208.41,488.96 L 206.91,489.01 L 205.73,489.04 L 203.40,489.02 L 202.26,489.00 L 200.19,488.88 L 199.21,488.81 L 197.65,488.58 L 196.14,488.11 L 196.05,488.05 L 195.76,487.46 L 195.60,487.09 L 195.18,485.93 L 194.96,485.29 L 194.42,483.64 L 194.14,482.76 L 193.51,480.71 L 193.19,479.63 L 192.49,477.25 L 192.13,476.02 L 191.39,473.39 L 190.63,470.71 L 189.07,464.95 L 188.29,462.06 L 186.81,456.35 L 186.10,453.57 L 184.87,448.56 L 184.59,447.38 L 184.11,445.27 L 183.88,444.26 L 183.52,442.54 L 183.36,441.73 L 183.17,440.66 L 183.26,440.92 L 183.38,441.10 L 183.63,441.38 L 183.77,441.39 L 184.06,441.34 L 184.22,441.18 L 184.80,439.98 L 184.90,438.98 L 184.82,438.48 L 184.57,437.49 L 184.33,437.11 L 183.79,436.43 L 183.42,436.31 L 182.99,436.36 L 182.80,436.63 L 182.74,436.86 L 182.71,437.10 L 182.64,437.01 L 182.52,436.94 L 182.19,437.25 L 182.01,437.48 L 181.56,438.40 L 181.32,438.94 L 180.75,440.47 L 180.44,441.31 L 179.74,443.46 L 179.38,444.62 L 178.55,447.39 L 177.16,452.25 L 176.58,454.35 L 175.26,459.00 L 174.58,461.36 L 173.20,466.10 L 172.52,468.44 L 171.25,472.72 L 170.95,473.73 L 170.39,475.58 L 169.64,478.00 L 166.37,488.50 L 154.92,488.78 L 152.89,488.83 L 152.81,488.83 L 153.01,488.81 L 153.28,488.71 L 153.59,488.47 L 153.45,488.27 L 153.00,487.80 L 152.56,487.47 L 150.39,486.40 L 148.75,486.05 L 147.93,486.05 L 146.34,486.18 L 145.65,486.42 L 144.40,487.02 L 144.00,487.50 L 143.56,488.08 L 143.55,488.28 L 143.59,488.42 L 143.16,488.35 L 142.50,488.19 L 141.72,487.78 L 141.53,487.64 L 141.07,486.83 L 140.82,486.34 L 140.25,484.87 L 139.95,484.06 L 139.29,481.98 L 138.94,480.87 L 138.20,478.25 L 137.81,476.88 L 137.00,473.78 L 136.58,472.18 L 135.71,468.66 L 135.27,466.85 L 134.36,462.97 L 133.90,460.99 L 132.96,456.80 L 132.01,452.55 L 130.09,443.41 L 129.14,438.77 L 127.28,429.20 L 126.37,424.41 L 124.69,414.91 L 122.46,401.25 L 122.30,400.19 L 122.04,398.31 L 121.91,397.41 L 121.71,395.84 L 121.62,395.09 L 121.49,393.80 L 121.44,393.18 L 121.38,392.14 L 121.33,391.16 L 121.45,389.84 L 121.90,388.62 L 121.98,388.53 L 122.39,388.33 L 122.64,388.23 L 123.36,388.02 L 124.15,387.80 L 126.48,387.35 L 127.74,387.12 L 130.73,386.66 L 132.28,386.44 L 135.58,386.04 L 137.23,385.84 L 140.49,385.52 L 142.08,385.38 L 143.25,385.30 L 143.23,385.51 L 143.44,385.72 L 143.98,386.18 L 144.44,386.53 L 145.56,387.34 L 145.99,387.57 L 146.76,387.92 L 147.05,387.91 L 147.58,387.79 L 147.79,387.56 L 148.18,386.97 L 148.36,386.50 L 148.48,385.78 L 148.33,385.44 L 148.13,385.33 L 147.63,385.14 L 147.29,385.10 L 148.39,385.09 M 281.55,386.95 L 285.67,386.96 L 293.53,387.02 L 295.42,387.04 L 298.98,387.09 L 300.71,387.12 L 303.85,387.18 L 305.36,387.22 L 307.97,387.30 L 309.20,387.34 L 311.18,387.43 L 312.07,387.48 L 313.30,387.59 L 314.17,387.77 L 314.29,387.89 L 314.50,388.71 L 314.60,389.20 L 314.69,390.15 L 314.48,389.52 L 314.32,389.36 L 313.97,389.17 L 313.75,389.24 L 313.15,389.79 L 312.82,390.45 L 312.68,390.89 L 312.25,392.88 L 312.18,394.01 L 312.16,396.29 L 312.32,397.23 L 312.52,398.10 L 312.66,398.43 L 312.98,399.00 L 313.19,399.14 L 313.90,399.58 L 314.19,399.73 L 314.64,399.96 L 314.50,403.50 L 311.49,403.45 L 311.52,403.40 L 311.59,403.15 L 311.50,403.00 L 310.51,402.29 L 309.52,402.00 L 309.00,402.00 L 307.49,402.29 L 306.67,402.72 L 306.50,403.00 L 306.41,403.28 L 306.46,403.37 L 291.75,403.13 L 280.40,402.94 L 282.06,402.85 L 282.73,402.79 L 283.93,402.65 L 284.25,402.56 L 284.72,402.38 L 284.62,402.28 L 283.73,401.93 L 282.64,401.69 L 281.92,401.57 L 280.37,401.34 L 279.49,401.23 L 277.68,401.02 L 276.74,400.93 L 272.95,400.62 L 271.40,400.57 L 269.95,400.55 L 269.41,400.57 L 268.47,400.65 L 268.26,400.73 L 267.78,401.70 L 267.51,403.02 L 267.40,403.93 L 267.20,405.91 L 267.13,407.06 L 267.01,409.44 L 266.98,410.69 L 266.94,413.22 L 266.96,414.45 L 267.01,416.87 L 267.07,417.96 L 267.22,420.01 L 267.33,420.82 L 267.58,422.26 L 267.75,422.67 L 267.86,422.85 L 267.91,422.83 L 268.01,422.71 L 268.07,422.55 L 268.27,421.66 L 268.36,420.85 L 268.54,419.03 L 268.61,417.83 L 268.74,415.26 L 268.78,413.75 L 269.00,405.56 L 269.00,427.33 L 268.98,427.26 L 268.97,426.67 L 268.92,425.55 L 268.85,425.16 L 268.78,425.13 L 268.61,425.19 L 268.47,425.38 L 268.15,425.86 L 267.92,426.26 L 267.37,427.79 L 267.34,428.74 L 267.50,429.01 L 268.02,429.52 L 268.43,429.69 L 269.34,429.94 L 269.81,429.92 L 270.71,429.73 L 270.63,429.49 L 270.25,429.34 L 270.09,429.16 L 290.54,428.46 L 293.70,428.36 L 293.51,428.48 L 293.45,428.60 L 293.41,428.86 L 293.50,429.00 L 293.98,429.52 L 294.34,429.71 L 295.12,430.00 L 295.50,430.00 L 296.66,429.71 L 297.33,429.27 L 297.50,429.00 L 297.55,428.60 L 297.37,428.38 L 297.19,428.29 L 297.05,428.24 L 312.08,427.73 L 311.50,445.50 L 306.36,445.49 L 306.65,445.40 L 306.85,445.15 L 307.00,444.63 L 306.70,444.34 L 306.34,444.06 L 306.05,443.91 L 305.42,443.63 L 305.00,443.50 L 303.08,443.24 L 301.73,443.34 L 301.12,443.50 L 299.99,443.88 L 299.61,444.15 L 299.00,444.73 L 299.00,445.07 L 299.11,445.32 L 299.28,445.41 L 296.15,445.34 L 284.00,444.99 L 283.47,444.97 L 284.75,444.95 L 285.86,444.84 L 286.13,444.74 L 286.51,444.48 L 286.47,444.28 L 286.27,443.83 L 286.00,443.50 L 285.08,442.79 L 284.28,442.44 L 283.82,442.33 L 281.82,442.02 L 280.81,442.09 L 278.85,442.37 L 278.15,442.71 L 277.51,443.08 L 277.31,443.32 L 277.00,443.81 L 277.00,444.11 L 277.14,444.35 L 277.40,444.45 L 278.04,444.66 L 278.50,444.74 L 279.12,444.83 L 269.50,444.50 L 269.19,453.50 L 269.10,455.97 L 269.16,461.43 L 269.19,462.73 L 269.29,465.07 L 269.52,467.85 L 269.72,469.51 L 269.55,469.32 L 269.13,469.03 L 268.84,469.10 L 268.20,469.40 L 267.83,469.77 L 267.24,471.04 L 267.34,471.50 L 267.49,471.76 L 267.83,472.30 L 268.09,472.62 L 268.67,473.31 L 268.87,473.50 L 269.22,473.76 L 269.34,473.73 L 269.54,473.54 L 269.61,473.27 L 269.75,472.60 L 269.83,472.08 L 269.88,470.83 L 270.17,473.21 L 275.34,472.63 L 275.61,472.60 L 276.45,472.54 L 276.91,472.51 L 278.10,472.44 L 278.72,472.41 L 280.19,472.35 L 280.96,472.32 L 281.36,472.31 L 281.30,472.40 L 281.41,472.53 L 281.71,472.81 L 282.00,473.00 L 282.89,473.54 L 283.25,473.70 L 283.91,473.93 L 284.18,473.93 L 284.69,473.85 L 284.90,473.70 L 285.31,473.31 L 285.50,473.00 L 285.54,472.60 L 285.34,472.38 L 285.15,472.29 L 284.79,472.19 L 288.44,472.09 L 290.49,472.04 L 294.79,471.95 L 296.94,471.91 L 301.11,471.85 L 303.15,471.82 L 306.79,471.79 L 307.65,471.79 L 309.20,471.79 L 309.94,471.79 L 311.21,471.80 L 311.80,471.81 L 312.75,471.84 L 313.75,471.89 L 314.10,471.92 L 314.57,472.66 L 314.76,473.14 L 314.93,474.84 L 314.96,475.32 L 314.95,476.48 L 314.94,477.09 L 314.86,478.51 L 314.81,479.25 L 314.66,480.93 L 314.35,483.75 L 313.72,489.00 L 309.95,488.84 L 310.03,488.83 L 310.25,488.73 L 310.55,488.48 L 310.50,488.28 L 310.27,487.82 L 310.00,487.50 L 308.82,486.44 L 308.00,486.08 L 307.56,486.08 L 306.64,486.19 L 306.13,486.42 L 305.06,487.00 L 304.44,487.47 L 303.66,488.07 L 303.49,488.27 L 303.29,488.62 L 303.34,488.65 L 302.56,488.63 L 299.99,488.59 L 298.64,488.56 L 295.59,488.52 L 294.01,488.49 L 290.58,488.45 L 288.83,488.42 L 285.12,488.38 L 281.35,488.33 L 273.36,488.25 L 270.66,488.22 L 265.88,488.16 L 263.60,488.13 L 259.63,488.05 L 257.74,488.01 L 254.51,487.92 L 252.99,487.87 L 250.46,487.76 L 249.27,487.70 L 247.38,487.56 L 246.51,487.49 L 245.20,487.33 L 244.62,487.25 L 243.85,487.05 L 243.23,486.74 L 243.17,486.66 L 243.03,485.98 L 242.96,485.56 L 242.81,484.23 L 242.73,483.50 L 242.57,481.59 L 242.49,480.57 L 242.32,478.14 L 242.23,476.86 L 242.05,473.97 L 241.96,472.47 L 241.79,469.16 L 241.70,467.46 L 241.55,464.46 L 241.59,464.49 L 241.85,464.59 L 242.00,464.50 L 242.39,464.03 L 242.62,463.52 L 242.71,463.20 L 243.00,461.75 L 243.00,460.94 L 242.71,458.86 L 242.51,458.38 L 242.39,458.23 L 242.14,458.00 L 242.00,458.00 L 241.61,458.28 L 241.38,458.72 L 241.29,459.05 L 241.29,459.05 L 241.25,458.01 L 241.07,454.01 L 240.73,445.39 L 240.57,441.02 L 240.51,439.43 L 240.55,439.43 L 240.82,439.27 L 241.00,439.00 L 241.72,437.11 L 241.95,435.57 L 241.95,434.81 L 241.87,433.31 L 241.72,432.73 L 241.32,431.70 L 241.00,431.50 L 240.59,431.58 L 240.36,431.98 L 240.28,432.31 L 240.27,432.02 L 240.13,427.52 L 239.90,418.61 L 239.69,408.20 L 239.71,408.30 L 239.77,408.45 L 239.91,408.67 L 240.00,408.69 L 240.38,408.55 L 240.65,408.19 L 241.10,407.14 L 241.37,406.09 L 241.48,405.43 L 241.85,402.48 L 241.93,400.81 L 242.01,397.45 L 241.93,395.99 L 241.82,394.58 L 241.73,394.00 L 241.53,392.94 L 241.39,392.58 L 240.93,391.56 L 240.66,391.15 L 240.54,391.09 L 240.31,391.05 L 240.21,391.18 L 240.02,391.52 L 239.94,391.84 L 239.79,392.57 L 239.73,393.09 L 239.62,394.21 L 239.58,394.93 L 239.50,396.46 L 239.50,396.56 L 239.37,388.21 L 243.94,387.62 L 244.42,387.56 L 245.98,387.45 L 246.85,387.40 L 249.12,387.31 L 250.33,387.26 L 253.18,387.18 L 254.67,387.15 L 258.01,387.09 L 259.72,387.06 L 263.43,387.02 L 265.31,387.00 L 269.27,386.97 L 273.27,386.95 M 651.52,453.75 L 651.40,455.78 L 651.38,456.55 L 651.39,457.95 L 651.43,458.41 L 651.53,459.19 L 651.62,459.36 L 651.81,459.55 L 651.92,459.43 L 652.17,459.05 L 652.31,458.66 L 652.59,457.73 L 652.74,457.08 L 653.04,455.63 L 653.19,454.72 L 653.48,452.77 L 653.61,451.62 L 653.81,449.23 L 653.81,447.90 L 653.72,447.35 L 653.49,446.33 L 653.26,445.93 L 652.73,445.18 L 652.34,444.89 L 651.46,444.37 L 650.88,444.18 L 649.60,443.84 L 648.78,443.73 L 647.04,443.54 L 645.97,443.48 L 643.71,443.39 L 642.37,443.37 L 638.48,443.39 L 636.46,443.50 L 635.70,443.60 L 634.34,443.83 L 633.88,444.00 L 633.10,444.38 L 632.90,444.62 L 632.71,445.33 L 632.90,445.50 L 633.09,445.57 L 633.20,445.60 L 633.14,445.60 L 629.00,445.34 L 619.69,444.68 L 620.40,465.75 L 620.50,468.64 L 620.61,473.97 L 620.63,475.24 L 620.66,477.59 L 620.66,478.73 L 620.66,480.77 L 620.66,481.75 L 620.63,483.42 L 620.61,484.20 L 620.56,485.45 L 620.53,486.01 L 620.45,486.77 L 620.30,487.30 L 620.18,487.37 L 619.72,487.51 L 619.46,487.58 L 618.73,487.70 L 617.94,487.83 L 615.74,488.04 L 614.57,488.14 L 611.82,488.29 L 610.41,488.37 L 607.44,488.46 L 605.95,488.50 L 603.07,488.52 L 601.66,488.52 L 599.17,488.46 L 598.01,488.43 L 596.23,488.28 L 595.85,488.24 L 595.27,488.14 L 595.01,488.09 L 594.72,487.96 L 594.51,487.83 L 594.16,487.40 L 593.99,487.13 L 593.73,486.18 L 593.61,485.61 L 593.42,483.83 L 593.38,483.31 L 593.31,482.07 L 593.27,481.42 L 593.21,479.86 L 593.18,479.04 L 593.14,477.13 L 593.12,476.12 L 593.09,473.81 L 593.07,472.61 L 593.05,469.86 L 593.04,468.43 L 593.03,465.21 L 593.02,463.53 L 593.02,459.80 L 593.02,457.86 L 593.02,453.57 L 593.02,451.35 L 593.03,446.46 L 593.05,438.42 L 593.05,435.83 L 593.07,431.04 L 593.08,428.71 L 593.09,424.43 L 593.10,422.34 L 593.12,418.53 L 593.14,416.68 L 593.16,413.31 L 593.18,411.68 L 593.21,408.73 L 593.23,407.30 L 593.26,404.74 L 593.29,403.51 L 593.29,403.16 L 593.36,404.62 L 593.44,405.17 L 593.63,406.06 L 593.78,406.21 L 594.09,406.31 L 594.30,406.10 L 594.78,405.14 L 595.03,404.13 L 595.13,403.49 L 595.42,400.63 L 595.44,399.05 L 595.38,395.90 L 595.21,394.62 L 595.02,393.43 L 594.89,392.98 L 594.60,392.20 L 594.42,392.03 L 593.93,391.99 L 593.72,392.42 L 593.88,391.00 L 593.98,390.25 L 594.22,389.30 L 594.65,388.49 L 594.94,388.20 L 595.90,387.78 L 596.47,387.58 L 598.16,387.32 L 599.13,387.20 L 601.78,387.07 L 602.52,387.05 L 604.21,387.02 L 607.10,387.00 L 608.45,387.00 L 610.68,387.01 L 611.72,387.01 L 613.40,387.04 L 614.17,387.06 L 615.38,387.14 L 615.93,387.19 L 616.76,387.33 L 617.14,387.41 L 617.68,387.64 L 617.93,387.76 L 618.28,388.09 L 619.02,389.57 L 619.09,389.74 L 619.22,390.46 L 619.28,390.87 L 619.40,392.02 L 619.46,392.64 L 619.57,394.16 L 619.62,394.96 L 619.71,396.79 L 619.74,397.29 L 619.65,396.08 L 619.60,395.56 L 619.48,394.63 L 619.41,394.31 L 619.28,393.77 L 619.20,393.64 L 619.03,393.48 L 618.94,393.54 L 618.70,393.93 L 618.56,394.44 L 618.51,394.80 L 618.40,395.62 L 618.35,396.14 L 618.27,397.26 L 618.24,397.94 L 618.19,399.36 L 618.18,400.19 L 618.16,401.92 L 618.16,402.90 L 618.17,404.93 L 618.18,406.05 L 618.22,408.38 L 618.25,409.65 L 618.33,415.70 L 618.31,419.27 L 618.27,420.72 L 618.23,422.10 L 618.20,422.69 L 618.13,423.78 L 618.10,424.20 L 618.01,424.96 L 617.97,425.20 L 617.87,425.58 L 617.81,425.62 L 617.09,426.68 L 616.97,427.67 L 617.06,428.21 L 617.36,429.30 L 617.64,429.77 L 618.30,430.65 L 618.75,430.91 L 619.89,431.37 L 620.57,431.44 L 621.95,431.45 L 622.50,431.27 L 623.73,431.04 L 624.90,430.93 L 625.60,430.89 L 628.67,430.81 L 630.25,430.88 L 632.64,430.90 L 633.96,430.84 L 634.45,430.77 L 635.34,430.61 L 635.60,430.49 L 636.00,430.23 L 636.00,430.06 L 635.45,429.62 L 634.56,429.37 L 633.87,429.28 L 632.33,429.12 L 631.35,429.07 L 629.24,429.00 L 620.00,429.00 L 633.75,428.99 L 635.64,428.98 L 639.25,428.94 L 640.99,428.91 L 644.05,428.82 L 645.48,428.77 L 647.64,428.65 L 648.11,428.61 L 648.82,428.54 L 649.21,428.48 L 649.00,428.72 L 649.00,429.00 L 649.13,429.52 L 649.34,429.68 L 649.86,429.93 L 650.21,429.95 L 650.95,429.93 L 651.34,429.81 L 652.14,429.50 L 652.50,429.23 L 652.73,428.65 L 652.86,427.89 L 652.91,427.35 L 653.02,426.16 L 653.06,425.43 L 653.13,423.88 L 653.16,423.00 L 653.24,419.19 L 653.24,417.02 L 653.23,412.54 L 653.19,410.25 L 653.08,405.66 L 653.00,403.52 L 652.82,399.39 L 652.71,397.68 L 652.59,396.04 L 652.52,395.35 L 652.39,394.06 L 652.31,393.56 L 652.16,392.67 L 652.09,392.41 L 651.92,392.00 L 651.84,392.00 L 651.62,392.30 L 651.49,392.80 L 651.43,393.19 L 651.33,394.07 L 651.29,394.65 L 651.21,395.90 L 651.18,396.67 L 651.13,398.29 L 651.12,399.23 L 651.10,400.77 L 651.10,400.20 L 651.13,398.07 L 651.15,397.04 L 651.21,395.25 L 651.24,394.40 L 651.33,392.94 L 651.37,392.26 L 651.49,391.14 L 651.55,390.63 L 651.70,389.86 L 651.96,389.08 L 652.21,388.60 L 652.86,387.95 L 653.26,387.66 L 654.63,387.32 L 655.04,387.25 L 656.11,387.16 L 656.69,387.11 L 658.14,387.06 L 658.92,387.04 L 660.83,387.02 L 664.29,387.02 L 665.83,387.02 L 668.76,387.09 L 670.17,387.14 L 672.64,387.30 L 673.79,387.39 L 675.52,387.60 L 675.89,387.66 L 676.45,387.78 L 676.98,387.96 L 677.13,388.06 L 677.41,388.63 L 677.53,388.99 L 677.75,390.24 L 677.86,390.97 L 678.03,393.12 L 678.07,393.73 L 678.15,395.15 L 678.19,395.90 L 678.26,397.62 L 678.29,398.52 L 678.35,400.58 L 678.38,401.65 L 678.44,404.06 L 678.47,405.31 L 678.49,406.46 L 678.40,406.44 L 678.08,406.52 L 677.87,406.73 L 677.45,407.44 L 677.27,408.10 L 677.23,408.51 L 677.21,410.33 L 677.42,411.43 L 677.65,412.58 L 677.75,413.02 L 677.96,413.84 L 678.06,414.12 L 678.24,414.60 L 678.33,414.71 L 678.49,414.86 L 678.56,414.81 L 678.61,414.73 L 678.66,418.09 L 678.68,419.97 L 678.72,424.09 L 678.74,426.21 L 678.78,430.83 L 678.84,438.34 L 679.23,487.79 L 677.01,488.50 L 676.55,488.64 L 674.93,488.81 L 674.02,488.87 L 673.48,488.87 L 674.13,488.81 L 674.53,488.73 L 675.23,488.54 L 675.39,488.42 L 675.60,488.15 L 675.50,488.00 L 674.99,487.58 L 674.46,487.36 L 674.12,487.28 L 672.58,487.04 L 671.69,487.04 L 669.88,487.12 L 669.05,487.28 L 667.49,487.68 L 667.00,488.00 L 666.60,488.32 L 666.61,488.44 L 666.77,488.67 L 666.99,488.72 L 666.42,488.70 L 663.57,488.48 L 662.16,488.36 L 659.46,488.07 L 658.16,487.91 L 655.87,487.56 L 654.81,487.38 L 653.22,486.99 L 652.88,486.89 L 652.37,486.70 L 651.91,486.40 L 651.81,486.27 L 651.64,485.78 L 651.55,485.50 L 651.41,484.66 L 651.35,484.19 L 651.24,482.99 L 651.20,482.34 L 651.13,480.75 L 651.10,479.91 L 651.06,477.91 L 651.05,476.87 L 651.05,474.45 L 651.05,473.18 L 651.08,470.32 L 651.16,465.50 L 651.56,446.00 L 652.08,446.00 M 350.09,387.15 L 352.95,387.16 L 359.02,387.18 L 368.50,387.22 L 415.50,387.50 L 416.08,401.75 L 398.39,402.49 L 395.23,402.62 L 395.77,402.53 L 396.06,402.41 L 396.48,402.18 L 396.45,402.06 L 396.23,401.80 L 395.88,401.68 L 395.04,401.43 L 394.38,401.32 L 392.92,401.10 L 391.95,401.01 L 389.87,400.84 L 388.60,400.79 L 385.46,400.73 L 383.83,400.79 L 383.24,400.87 L 382.19,401.05 L 381.87,401.20 L 381.35,401.53 L 381.27,401.75 L 381.25,402.18 L 381.49,402.34 L 382.13,402.63 L 382.75,402.73 L 384.18,402.89 L 385.23,402.94 L 386.72,402.98 L 380.70,403.23 L 381.42,445.04 L 381.46,447.62 L 381.54,452.30 L 381.58,454.57 L 381.63,457.78 L 381.55,457.21 L 381.43,456.87 L 381.16,456.40 L 381.00,456.50 L 380.63,457.16 L 380.42,457.96 L 380.34,458.51 L 380.19,459.69 L 380.14,460.38 L 380.05,461.83 L 380.03,462.62 L 380.02,465.90 L 380.12,467.51 L 380.38,470.66 L 380.62,471.88 L 381.00,473.52 L 381.18,474.08 L 381.35,474.59 L 381.43,474.75 L 381.57,475.00 L 381.62,475.00 L 381.77,474.25 L 381.83,473.38 L 381.84,474.26 L 381.84,476.43 L 381.84,477.46 L 381.83,479.25 L 381.82,480.09 L 381.78,481.53 L 381.76,482.21 L 381.70,483.35 L 381.67,483.88 L 381.59,484.75 L 381.51,485.57 L 381.27,486.57 L 381.13,487.00 L 380.78,487.47 L 380.13,487.93 L 379.58,488.22 L 377.75,488.63 L 377.28,488.65 L 377.49,488.52 L 377.55,488.40 L 377.59,488.14 L 377.50,488.00 L 376.66,487.29 L 375.88,487.00 L 375.50,487.00 L 374.34,487.29 L 373.67,487.72 L 373.50,488.00 L 373.40,488.28 L 373.45,488.40 L 373.63,488.62 L 373.81,488.71 L 373.92,488.75 L 372.86,488.69 L 372.03,488.65 L 369.98,488.56 L 367.84,488.46 L 363.00,488.27 L 361.38,488.21 L 358.87,488.03 L 357.73,487.93 L 356.05,487.66 L 355.30,487.50 L 354.26,487.09 L 353.25,486.28 L 353.20,486.22 L 353.11,485.87 L 353.06,485.67 L 352.97,485.05 L 352.89,484.38 L 352.73,482.30 L 352.65,481.15 L 352.51,478.23 L 352.45,476.69 L 352.33,473.08 L 352.28,471.21 L 352.18,467.06 L 352.14,464.93 L 352.07,460.39 L 352.00,455.78 L 351.94,445.99 L 351.92,441.10 L 351.96,431.64 L 351.98,429.35 L 352.03,425.03 L 352.06,422.93 L 352.08,421.59 L 352.09,422.00 L 352.12,425.16 L 352.17,426.37 L 352.27,428.56 L 352.35,429.28 L 352.52,430.47 L 352.63,430.67 L 352.86,430.82 L 353.00,430.50 L 353.39,429.03 L 353.59,427.67 L 353.67,426.86 L 353.89,423.30 L 353.89,421.40 L 353.82,417.63 L 353.67,416.12 L 353.50,414.70 L 353.39,414.17 L 353.15,413.23 L 353.00,413.00 L 352.57,412.97 L 352.36,413.70 L 352.28,414.45 L 352.25,414.85 L 352.28,414.06 L 352.33,412.56 L 352.46,410.14 L 352.53,409.05 L 352.69,407.56 L 352.73,407.25 L 352.82,406.83 L 352.96,406.53 L 353.22,406.36 L 353.47,405.68 L 353.35,404.47 L 353.29,404.32 L 353.03,404.06 L 352.87,403.93 L 352.35,403.73 L 352.06,403.63 L 351.22,403.47 L 350.75,403.40 L 349.52,403.28 L 348.84,403.22 L 347.15,403.14 L 346.23,403.11 L 344.01,403.06 L 342.82,403.04 L 339.99,403.01 L 334.99,403.00 L 317.20,403.00 L 317.35,395.47 L 317.37,394.64 L 317.41,393.23 L 317.43,392.57 L 317.49,391.47 L 317.56,390.44 L 317.81,389.13 L 317.96,388.57 L 318.44,387.94 L 319.50,387.44 L 319.57,387.42 L 319.95,387.39 L 320.18,387.37 L 320.86,387.35 L 321.24,387.33 L 322.22,387.30 L 322.74,387.29 L 323.99,387.27 L 325.30,387.25 L 328.67,387.21 L 330.47,387.19 L 334.72,387.17 L 336.94,387.16 L 341.93,387.15 L 344.50,387.15 M 555.94,386.06 L 558.58,386.20 L 559.83,386.30 L 561.99,386.67 L 565.13,387.52 L 567.00,388.13 L 570.33,389.41 L 571.95,390.07 L 574.88,391.51 L 576.30,392.25 L 578.95,393.90 L 582.75,396.69 L 583.59,397.37 L 584.96,398.54 L 585.60,399.09 L 586.58,400.07 L 587.03,400.55 L 587.65,401.40 L 587.91,401.82 L 588.17,402.61 L 588.26,403.00 L 588.17,403.79 L 588.09,404.19 L 587.68,405.05 L 587.43,405.49 L 586.70,406.46 L 585.27,408.14 L 584.81,408.66 L 583.58,409.87 L 582.92,410.50 L 581.39,411.88 L 579.81,413.28 L 576.33,416.11 L 575.48,416.78 L 573.86,418.01 L 573.07,418.60 L 571.68,419.57 L 571.03,420.01 L 570.01,420.62 L 569.03,421.00 L 568.93,421.00 L 568.45,420.53 L 568.18,420.23 L 567.43,419.26 L 567.03,418.72 L 566.11,417.38 L 564.63,415.08 L 563.61,413.43 L 561.56,410.63 L 560.52,409.31 L 558.38,407.12 L 557.29,406.09 L 554.98,404.43 L 551.26,402.46 L 550.21,402.03 L 548.55,401.47 L 547.75,401.24 L 546.27,401.09 L 545.52,401.07 L 543.81,401.31 L 540.54,402.11 L 539.25,402.47 L 536.89,403.69 L 535.76,404.38 L 533.74,406.22 L 532.77,407.21 L 531.10,409.60 L 530.31,410.86 L 529.02,413.74 L 528.43,415.24 L 527.54,418.56 L 527.14,420.26 L 526.68,423.95 L 526.51,425.84 L 526.50,429.84 L 527.01,436.12 L 527.25,437.87 L 527.99,441.40 L 528.40,443.17 L 529.45,446.67 L 530.01,448.41 L 531.32,451.78 L 532.01,453.44 L 533.53,456.59 L 534.31,458.13 L 536.00,460.96 L 536.86,462.33 L 538.66,464.76 L 539.58,465.91 L 541.45,467.83 L 544.29,470.03 L 545.31,470.66 L 547.32,471.60 L 548.32,472.02 L 550.30,472.55 L 551.28,472.77 L 553.23,472.88 L 554.21,472.88 L 556.15,472.57 L 557.12,472.37 L 559.07,471.64 L 560.05,471.22 L 562.03,470.06 L 563.02,469.42 L 565.03,467.83 L 568.12,464.96 L 568.90,464.16 L 570.44,462.67 L 571.19,461.96 L 572.54,460.75 L 573.18,460.20 L 574.19,459.41 L 575.16,458.83 L 575.41,458.78 L 576.28,459.06 L 576.76,459.25 L 577.99,459.94 L 578.64,460.33 L 580.08,461.31 L 580.82,461.82 L 582.31,462.97 L 583.06,463.55 L 584.45,464.74 L 585.13,465.33 L 586.27,466.45 L 586.79,466.98 L 587.53,467.90 L 588.00,468.92 L 588.00,469.42 L 587.34,470.72 L 586.92,471.41 L 585.53,472.98 L 584.75,473.79 L 582.79,475.52 L 581.75,476.40 L 579.36,478.18 L 578.13,479.07 L 575.48,480.79 L 574.14,481.63 L 571.39,483.16 L 570.02,483.90 L 567.32,485.15 L 563.50,486.57 L 562.76,486.79 L 560.91,487.19 L 559.94,487.38 L 557.73,487.71 L 555.46,488.02 L 550.40,488.40 L 547.87,488.55 L 544.60,488.56 L 545.00,488.27 L 545.00,488.00 L 544.58,487.29 L 543.96,487.00 L 543.56,487.00 L 542.36,487.29 L 541.67,487.72 L 541.50,488.00 L 541.41,488.50 L 540.00,488.41 L 539.05,488.33 L 537.50,488.09 L 535.40,487.68 L 531.36,486.46 L 529.36,485.78 L 525.57,484.04 L 523.71,483.11 L 520.21,480.90 L 518.50,479.74 L 515.34,477.09 L 513.81,475.71 L 511.02,472.67 L 509.68,471.10 L 507.32,467.69 L 506.19,465.94 L 504.29,462.21 L 502.01,456.29 L 501.70,455.29 L 501.18,452.97 L 500.94,451.77 L 500.57,449.14 L 500.23,446.46 L 500.00,440.62 L 499.96,437.69 L 500.31,431.99 L 500.44,430.62 L 500.81,428.04 L 501.53,424.54 L 502.01,422.69 L 503.28,419.11 L 503.96,417.33 L 505.60,413.91 L 506.47,412.22 L 508.46,409.00 L 509.50,407.42 L 511.83,404.43 L 513.03,402.97 L 515.65,400.25 L 517.00,398.92 L 519.90,396.49 L 521.38,395.32 L 524.53,393.21 L 529.50,390.46 L 530.44,390.01 L 532.05,389.26 L 532.82,388.91 L 534.19,388.33 L 535.52,387.79 L 537.96,387.12 L 539.23,386.84 L 542.29,386.52 L 543.14,386.45 L 545.12,386.34 L 548.63,386.19 L 549.73,386.14 L 551.69,386.09 L 552.63,386.07 L 554.32,386.06 M 496.24,389.85 L 496.36,390.30 L 496.55,391.54 L 496.64,392.20 L 496.76,393.71 L 496.80,398.33 L 496.50,403.50 L 494.54,403.47 L 494.50,403.28 L 494.27,402.82 L 494.00,402.50 L 492.82,401.44 L 492.00,401.08 L 491.56,401.08 L 490.64,401.19 L 490.13,401.42 L 489.06,402.00 L 488.44,402.47 L 487.66,403.07 L 487.49,403.27 L 487.45,403.35 L 473.75,403.13 L 462.56,402.94 L 463.25,402.93 L 465.06,402.81 L 465.70,402.73 L 466.79,402.54 L 467.07,402.43 L 467.45,402.20 L 467.38,402.07 L 467.06,401.80 L 466.64,401.67 L 465.63,401.39 L 464.87,401.26 L 463.18,400.99 L 462.08,400.87 L 459.73,400.63 L 458.30,400.53 L 455.77,400.36 L 454.37,400.28 L 453.80,400.26 L 452.73,400.24 L 452.30,400.25 L 451.51,400.30 L 451.20,400.35 L 450.15,400.62 L 449.82,400.89 L 449.26,401.52 L 449.00,401.99 L 448.41,403.74 L 448.36,404.78 L 448.53,405.05 L 448.66,405.50 L 448.74,406.01 L 448.78,406.37 L 448.92,408.06 L 448.98,409.21 L 449.09,411.70 L 449.12,413.15 L 449.18,416.17 L 449.18,417.78 L 449.22,422.39 L 449.28,425.15 L 449.33,426.28 L 449.42,428.35 L 449.48,429.03 L 449.53,429.65 L 449.56,429.86 L 449.63,430.20 L 449.66,430.25 L 450.03,430.71 L 450.27,430.82 L 450.78,430.99 L 451.05,430.96 L 451.59,430.85 L 451.84,430.69 L 452.32,430.30 L 452.50,430.00 L 452.63,429.29 L 452.48,429.13 L 472.25,428.83 L 474.70,428.79 L 474.72,428.82 L 475.00,429.00 L 475.90,429.51 L 476.35,429.68 L 477.22,429.97 L 477.50,429.97 L 478.65,429.68 L 479.59,429.27 L 480.00,429.00 L 480.32,428.70 L 493.50,428.50 L 493.50,445.50 L 488.44,445.40 L 488.58,445.36 L 488.82,445.10 L 489.10,444.54 L 488.89,444.24 L 488.22,443.64 L 487.50,443.36 L 485.65,443.12 L 484.20,443.26 L 483.51,443.44 L 482.19,443.85 L 481.74,444.12 L 481.00,444.70 L 481.00,445.02 L 481.11,445.27 L 479.85,445.24 L 476.11,445.14 L 474.20,445.08 L 470.29,444.94 L 468.36,444.87 L 467.85,444.84 L 467.86,444.84 L 468.13,444.74 L 468.51,444.48 L 468.47,444.28 L 468.27,443.83 L 468.00,443.50 L 467.08,442.79 L 466.28,442.44 L 465.82,442.33 L 463.82,442.02 L 462.81,442.09 L 460.85,442.37 L 460.15,442.71 L 459.51,443.08 L 459.31,443.32 L 459.00,443.81 L 459.00,444.11 L 459.14,444.35 L 459.28,444.40 L 450.89,443.87 L 451.20,458.69 L 451.23,460.26 L 451.30,462.93 L 451.33,464.19 L 451.41,466.29 L 451.45,467.28 L 451.54,468.86 L 451.60,469.60 L 451.72,470.74 L 451.78,471.26 L 451.94,472.01 L 452.02,472.34 L 452.22,472.77 L 453.00,473.11 L 453.22,473.05 L 454.06,472.94 L 454.53,472.88 L 455.84,472.77 L 456.54,472.71 L 458.24,472.61 L 459.13,472.55 L 461.14,472.45 L 462.75,472.37 L 462.55,472.48 L 462.48,472.60 L 462.41,472.85 L 462.50,473.00 L 463.10,473.52 L 463.65,473.71 L 464.89,474.00 L 465.56,474.00 L 467.28,473.71 L 468.00,473.27 L 468.00,473.00 L 467.76,472.61 L 467.38,472.38 L 467.10,472.29 L 466.73,472.21 L 468.05,472.16 L 470.53,472.08 L 475.71,471.94 L 478.28,471.87 L 483.23,471.79 L 485.62,471.76 L 489.77,471.74 L 490.73,471.75 L 492.39,471.77 L 493.18,471.78 L 494.45,471.82 L 495.03,471.85 L 495.82,471.91 L 496.41,472.04 L 496.55,472.17 L 496.72,472.96 L 496.78,473.43 L 496.82,474.82 L 496.82,475.58 L 496.72,477.46 L 496.41,480.71 L 495.50,488.50 L 492.42,488.52 L 492.54,488.48 L 492.67,488.32 L 492.83,487.97 L 492.76,487.75 L 491.69,486.67 L 490.48,486.28 L 489.76,486.24 L 488.25,486.29 L 487.51,486.49 L 486.07,486.99 L 485.50,487.43 L 484.69,488.05 L 484.51,488.26 L 484.38,488.52 L 481.97,488.51 L 480.63,488.50 L 477.61,488.47 L 476.05,488.46 L 472.64,488.43 L 470.90,488.42 L 467.22,488.39 L 463.47,488.35 L 455.53,488.27 L 453.26,488.25 L 449.05,488.19 L 447.00,488.15 L 443.26,488.07 L 441.45,488.03 L 438.21,487.94 L 436.66,487.89 L 435.53,487.84 L 435.76,487.85 L 437.58,487.91 L 438.60,487.93 L 440.71,487.97 L 441.87,487.98 L 444.26,488.00 L 445.56,488.00 L 449.36,487.98 L 451.64,487.96 L 452.66,487.94 L 454.60,487.89 L 455.45,487.86 L 457.05,487.79 L 457.72,487.74 L 458.98,487.65 L 459.48,487.60 L 460.38,487.49 L 460.70,487.43 L 461.24,487.30 L 461.37,487.23 L 461.55,487.08 L 461.50,487.00 L 461.07,486.79 L 460.51,486.65 L 460.10,486.59 L 459.19,486.47 L 458.62,486.42 L 457.39,486.32 L 456.66,486.28 L 455.14,486.19 L 454.28,486.16 L 452.49,486.10 L 451.50,486.07 L 447.33,486.00 L 444.94,486.00 L 441.40,486.02 L 439.23,486.05 L 438.25,486.07 L 436.36,486.12 L 435.52,486.15 L 433.92,486.22 L 433.24,486.27 L 431.94,486.36 L 431.42,486.41 L 430.45,486.52 L 430.09,486.58 L 429.46,486.71 L 429.28,486.78 L 429.00,486.92 L 429.00,487.00 L 429.10,487.15 L 429.29,487.22 L 429.76,487.36 L 430.13,487.42 L 430.96,487.54 L 431.50,487.59 L 432.68,487.69 L 433.39,487.73 L 434.74,487.81 L 433.95,487.78 L 432.67,487.72 L 430.51,487.59 L 429.51,487.53 L 427.94,487.39 L 427.23,487.32 L 426.26,487.17 L 425.53,486.93 L 425.25,486.65 L 424.77,485.56 L 424.39,483.70 L 424.34,482.85 L 424.24,480.79 L 424.19,479.70 L 424.08,477.21 L 424.02,475.92 L 423.89,473.06 L 423.83,471.59 L 423.70,468.42 L 423.57,465.50 L 423.60,465.52 L 423.85,465.59 L 424.00,465.50 L 424.71,464.51 L 425.00,463.52 L 425.00,463.00 L 424.71,461.49 L 424.27,460.67 L 424.00,460.50 L 423.60,460.48 L 423.38,460.70 L 423.27,458.08 L 423.13,454.46 L 422.83,446.92 L 422.69,443.14 L 422.59,440.46 L 422.59,440.46 L 422.85,440.59 L 423.00,440.50 L 423.71,439.22 L 424.00,437.79 L 424.00,437.00 L 423.71,434.78 L 423.27,433.67 L 423.00,433.50 L 422.59,433.54 L 422.36,433.87 L 422.34,433.93 L 422.27,431.98 L 422.02,425.06 L 421.97,423.39 L 421.86,420.23 L 421.80,418.69 L 421.71,415.84 L 421.67,414.46 L 421.59,411.98 L 421.50,408.73 L 421.47,407.94 L 421.51,408.27 L 421.56,408.46 L 421.80,408.92 L 422.00,408.81 L 422.46,408.37 L 422.79,407.89 L 423.75,405.22 L 423.87,404.08 L 423.87,403.43 L 423.82,402.08 L 423.73,401.32 L 423.38,398.81 L 423.12,397.53 L 422.99,397.08 L 422.72,396.31 L 422.59,396.12 L 422.33,395.86 L 422.21,395.92 L 421.97,396.16 L 421.86,396.46 L 421.66,397.19 L 421.59,397.74 L 421.44,398.95 L 421.40,399.74 L 421.33,401.43 L 421.33,402.45 L 421.33,402.76 L 420.96,388.97 L 423.28,388.08 L 423.44,388.02 L 424.46,387.90 L 425.08,387.84 L 426.94,387.71 L 427.96,387.65 L 430.56,387.53 L 431.94,387.47 L 435.17,387.36 L 436.86,387.31 L 439.34,387.24 L 439.25,387.25 L 438.30,387.37 L 438.03,387.45 L 437.64,387.62 L 437.64,387.72 L 437.78,387.95 L 438.05,388.08 L 438.72,388.36 L 439.24,388.53 L 440.42,388.87 L 441.20,389.06 L 442.25,389.27 L 442.90,389.34 L 444.30,389.46 L 445.08,389.48 L 448.41,389.48 L 450.13,389.37 L 453.52,389.07 L 454.91,388.83 L 456.23,388.57 L 456.75,388.43 L 457.69,388.12 L 457.97,387.96 L 458.12,387.75 L 458.01,387.63 L 457.85,387.58 L 457.46,387.47 L 457.17,387.42 L 456.51,387.33 L 456.09,387.29 L 454.14,387.15 L 452.80,387.10 L 449.88,387.04 L 448.51,387.03 L 448.91,387.02 L 453.44,386.95 L 460.49,386.87 L 495.38,386.53 M 256.15,486.39 L 252.87,486.42 L 251.51,486.46 L 250.21,486.50 L 249.66,486.54 L 248.63,486.60 L 248.24,486.65 L 247.53,486.74 L 247.32,486.79 L 247.00,486.90 L 247.00,486.97 L 247.08,487.13 L 247.25,487.20 L 247.67,487.35 L 248.00,487.41 L 248.74,487.53 L 249.23,487.59 L 250.28,487.69 L 250.93,487.73 L 252.29,487.82 L 253.08,487.85 L 254.74,487.91 L 255.68,487.93 L 257.63,487.97 L 258.71,487.98 L 260.95,488.00 L 262.17,488.00 L 268.01,487.96 L 271.40,487.90 L 272.73,487.85 L 273.99,487.80 L 274.51,487.77 L 275.47,487.72 L 275.82,487.68 L 276.44,487.62 L 276.61,487.59 L 276.85,487.52 L 276.82,487.48 L 276.31,487.29 L 275.67,487.17 L 275.23,487.11 L 274.26,487.00 L 273.67,486.95 L 272.42,486.85 L 271.71,486.81 L 268.65,486.64 L 266.92,486.58 L 263.34,486.47 L 261.51,486.43 L 257.86,486.39 M 650.58,427.80 L 650.37,428.00 L 650.33,428.00 L 650.60,427.76 M 317.86,389.17 L 317.76,389.49 L 317.60,390.30 L 317.56,390.96 L 317.50,392.46 L 317.50,393.50 L 317.52,395.38 L 317.56,396.04 L 317.66,397.18 L 317.76,397.51 L 317.98,398.01 L 318.14,398.05 L 318.51,397.99 L 318.75,397.79 L 319.24,397.13 L 319.52,396.49 L 319.63,396.10 L 320.00,394.40 L 320.00,393.50 L 319.63,390.90 L 319.38,390.16 L 319.24,389.87 L 318.92,389.35 L 318.75,389.21 L 318.14,388.95 M 263.27,387.06 L 260.94,387.11 L 260.01,387.15 L 258.33,387.24 L 257.81,387.29 L 257.35,387.35 L 257.21,387.38 L 257.00,387.44 L 257.00,387.47 L 257.26,387.72 L 257.66,387.93 L 257.95,388.05 L 259.35,388.55 L 260.24,388.78 L 261.26,389.00 L 261.88,389.07 L 263.20,389.20 L 263.94,389.23 L 267.05,389.27 L 268.65,389.18 L 271.80,388.94 L 273.10,388.72 L 274.33,388.49 L 274.82,388.35 L 275.72,388.07 L 276.00,387.91 L 275.88,387.56 L 275.03,387.36 L 274.27,387.29 L 272.51,387.15 L 271.33,387.10 L 268.79,387.03 L 267.25,387.03 M 620.00,410.37 L 620.00,410.57 L 620.00,410.94 Z" fill="rgba(105,105,105,1)"/>
<path d="M 381.16,570.73 L 381.18,569.60 L 381.26,567.81 L 381.30,567.00 L 381.40,565.93 L 381.45,565.50 L 381.56,565.27 L 381.74,565.96 L 381.85,566.91 L 382.60,568.80 L 382.81,569.24 L 383.30,569.97 L 384.08,570.77 L 384.77,571.25 L 385.58,572.49 L 385.90,573.14 L 385.97,574.50 L 385.91,575.17 L 385.26,576.40 L 383.50,577.82 L 381.00,578.96 L 381.16,570.73 M 139.00,568.52 L 139.00,558.70 L 142.19,562.04 L 142.73,562.61 L 143.82,563.55 L 144.37,563.98 L 145.47,564.65 L 148.94,565.74 L 150.03,565.85 L 151.75,566.28 L 152.52,566.51 L 153.41,567.04 L 153.57,567.16 L 153.69,567.40 L 153.72,567.52 L 153.54,567.71 L 153.41,567.80 L 152.91,567.92 L 151.77,568.00 L 151.04,568.00 L 149.08,567.69 L 146.33,566.93 L 145.72,566.71 L 144.81,566.46 L 144.39,566.37 L 143.71,566.45 L 143.38,566.53 L 142.77,566.97 L 141.74,568.07 L 141.21,568.73 L 140.51,570.59 L 140.18,573.60 L 140.24,574.52 L 140.13,576.16 L 140.09,576.52 L 139.96,577.10 L 139.70,577.63 L 139.61,577.73 L 139.43,577.13 L 139.35,576.71 L 139.21,575.24 L 139.14,574.42 L 139.06,572.27 L 139.02,571.14 M 259.00,568.06 L 259.00,566.81 L 259.03,564.54 L 259.06,563.46 L 259.13,561.66 L 259.16,560.84 L 259.26,559.71 L 259.43,559.00 L 259.49,559.00 L 259.71,559.23 L 259.83,559.38 L 260.16,559.87 L 261.33,561.96 L 261.66,562.61 L 262.06,563.56 L 262.22,563.99 L 262.30,564.63 L 262.30,564.92 L 262.06,565.40 L 261.32,566.15 L 261.04,566.38 L 260.66,566.95 L 260.49,567.26 L 260.30,568.05 L 260.24,568.48 L 260.25,569.57 L 260.46,571.60 L 260.56,572.24 L 260.65,573.39 L 260.68,573.93 L 260.64,574.85 L 260.60,575.27 L 260.43,575.90 L 260.05,576.47 L 259.87,576.58 L 259.59,576.19 L 259.46,575.90 L 259.26,574.70 L 259.17,574.00 L 259.07,571.99 L 259.02,570.88 M 440.00,569.20 L 440.00,568.37 L 440.01,566.95 L 440.03,566.27 L 440.06,565.12 L 440.11,564.05 L 440.30,562.62 L 440.41,562.01 L 440.75,561.35 L 441.50,561.00 L 441.91,561.00 L 442.56,561.31 L 443.00,562.06 L 443.00,562.35 L 442.71,562.63 L 442.00,562.50 L 441.72,562.33 L 441.29,562.37 L 441.00,562.94 L 441.00,563.23 L 441.30,563.69 L 442.01,564.00 L 442.17,564.00 L 442.40,564.39 L 442.50,564.65 L 442.60,565.52 L 442.64,566.01 L 442.61,567.33 L 442.43,569.75 L 442.31,570.88 L 442.06,572.71 L 441.93,573.55 L 441.65,574.80 L 441.52,575.35 L 441.25,576.01 L 441.12,576.27 L 440.86,576.36 L 440.74,576.33 L 440.52,575.85 L 440.42,575.53 L 440.25,574.48 L 440.17,573.88 L 440.07,572.26 L 440.02,571.38 M 238.62,573.20 L 238.55,573.09 L 238.51,572.54 L 238.50,572.22 L 238.56,571.33 L 239.12,567.98 L 239.39,566.77 L 239.64,564.12 L 239.67,563.49 L 239.66,562.36 L 239.50,561.03 L 238.89,558.50 L 240.51,560.77 L 240.86,561.25 L 241.31,562.13 L 241.50,562.59 L 241.64,563.61 L 241.67,564.16 L 241.53,565.60 L 241.00,568.52 L 240.85,569.21 L 240.60,570.36 L 240.48,570.91 L 240.27,571.78 L 240.06,572.60 L 239.72,573.48 L 239.55,573.81 L 239.21,573.86 L 239.04,573.80 M 602.00,565.44 L 602.00,564.83 L 602.44,563.70 L 603.50,562.64 L 603.91,562.48 L 604.56,562.49 L 605.00,562.95 L 605.00,563.19 L 604.63,563.72 L 603.75,564.34 L 603.25,564.54 L 603.00,564.76 L 603.75,564.92 L 604.20,564.95 L 604.72,565.40 L 604.92,565.66 L 604.97,566.34 L 604.94,566.67 L 604.55,567.25 L 603.50,567.67 L 603.06,567.67 L 602.42,567.05 L 602.15,566.65 M 401.70,564.94 L 401.52,564.29 L 401.60,563.53 L 402.33,563.28 L 402.69,563.40 L 403.26,564.06 L 403.51,564.43 L 403.80,565.32 L 403.90,565.75 L 403.82,566.49 L 403.19,567.00 L 402.93,567.00 L 402.36,566.40 L 402.09,566.02 M 619.00,563.99 L 619.00,563.35 L 619.09,562.46 L 619.15,562.06 L 619.44,561.59 L 619.62,561.39 L 620.20,561.23 L 621.50,561.23 L 622.28,561.29 L 623.33,561.81 L 624.00,563.06 L 624.00,563.50 L 623.27,564.54 L 621.50,565.82 L 620.91,566.09 L 620.11,566.38 L 619.77,566.48 L 619.36,566.36 L 619.20,566.24 L 619.06,565.61 L 619.01,565.22 M 144.00,487.50 L 144.40,487.02 L 145.65,486.42 L 146.34,486.18 L 147.93,486.05 L 148.75,486.05 L 150.39,486.40 L 152.56,487.47 L 153.00,487.80 L 153.45,488.27 L 153.59,488.47 L 153.28,488.71 L 153.01,488.81 L 151.76,488.91 L 151.38,488.93 L 150.41,488.95 L 148.63,488.97 L 147.99,488.97 L 146.92,488.97 L 146.41,488.96 L 145.60,488.93 L 144.84,488.90 L 143.99,488.73 L 143.67,488.63 L 143.55,488.28 L 143.56,488.08 M 207.00,487.50 L 207.34,487.09 L 208.54,486.44 L 210.50,486.00 L 211.12,486.00 L 212.46,486.44 L 214.00,487.50 L 214.27,487.82 L 214.48,488.28 L 214.53,488.48 L 214.19,488.74 L 213.94,488.84 L 212.93,488.95 L 210.50,489.00 L 209.47,489.00 L 208.07,488.95 L 207.47,488.91 L 206.81,488.74 L 206.56,488.63 L 206.52,488.28 L 206.56,488.08 M 304.44,487.47 L 305.06,487.00 L 306.13,486.42 L 306.64,486.19 L 307.56,486.08 L 308.00,486.08 L 308.82,486.44 L 310.00,487.50 L 310.27,487.82 L 310.50,488.28 L 310.55,488.48 L 310.25,488.73 L 310.03,488.83 L 309.10,488.93 L 306.87,488.97 L 305.86,488.96 L 304.53,488.91 L 303.97,488.88 L 303.46,488.72 L 303.29,488.62 L 303.49,488.27 L 303.66,488.07 M 373.50,488.00 L 373.67,487.72 L 374.34,487.29 L 375.50,487.00 L 375.88,487.00 L 376.66,487.29 L 377.50,488.00 L 377.59,488.14 L 377.55,488.40 L 377.49,488.52 L 377.19,488.71 L 375.50,489.00 L 374.75,489.00 L 373.81,488.71 L 373.63,488.62 L 373.45,488.40 L 373.40,488.28 M 485.50,487.43 L 486.07,486.99 L 487.51,486.49 L 488.25,486.29 L 489.76,486.24 L 490.48,486.28 L 491.69,486.67 L 492.76,487.75 L 492.83,487.97 L 492.67,488.32 L 492.54,488.48 L 491.94,488.70 L 491.58,488.80 L 490.51,488.91 L 488.33,488.97 L 487.20,488.96 L 485.72,488.91 L 485.09,488.88 L 484.52,488.72 L 484.33,488.61 L 484.51,488.26 L 484.69,488.05 M 541.50,488.00 L 541.67,487.72 L 542.36,487.29 L 543.56,487.00 L 543.96,487.00 L 544.58,487.29 L 545.00,488.00 L 545.00,488.27 L 544.40,488.71 L 542.94,489.00 L 542.37,489.00 L 541.67,488.71 L 541.41,488.52 M 667.00,488.00 L 667.49,487.68 L 669.05,487.28 L 669.88,487.12 L 671.69,487.04 L 672.58,487.04 L 674.12,487.28 L 674.46,487.36 L 674.99,487.58 L 675.50,488.00 L 675.60,488.15 L 675.39,488.42 L 675.23,488.54 L 674.53,488.73 L 674.13,488.81 L 672.98,488.92 L 670.81,488.98 L 669.86,488.98 L 668.46,488.92 L 667.84,488.89 L 667.08,488.75 L 666.77,488.67 L 666.61,488.44 L 666.60,488.32 M 247.00,486.97 L 247.00,486.90 L 247.32,486.79 L 247.53,486.74 L 248.24,486.65 L 248.63,486.60 L 249.66,486.54 L 250.21,486.50 L 251.51,486.46 L 252.87,486.42 L 256.15,486.39 L 257.86,486.39 L 261.51,486.43 L 263.34,486.47 L 266.92,486.58 L 268.65,486.64 L 271.71,486.81 L 272.42,486.85 L 273.67,486.95 L 274.26,487.00 L 275.23,487.11 L 275.67,487.17 L 276.31,487.29 L 276.82,487.48 L 276.85,487.52 L 276.61,487.59 L 276.44,487.62 L 275.82,487.68 L 275.47,487.72 L 274.51,487.77 L 273.99,487.80 L 272.73,487.85 L 271.40,487.90 L 268.01,487.96 L 262.17,488.00 L 260.95,488.00 L 258.71,487.98 L 257.63,487.97 L 255.68,487.93 L 254.74,487.91 L 253.08,487.85 L 252.29,487.82 L 250.93,487.73 L 250.28,487.69 L 249.23,487.59 L 248.74,487.53 L 248.00,487.41 L 247.67,487.35 L 247.25,487.20 L 247.08,487.13 M 429.00,487.00 L 429.00,486.92 L 429.28,486.78 L 429.46,486.71 L 430.09,486.58 L 430.45,486.52 L 431.42,486.41 L 431.94,486.36 L 433.24,486.27 L 433.92,486.22 L 435.52,486.15 L 436.36,486.12 L 438.25,486.07 L 439.23,486.05 L 441.40,486.02 L 444.94,486.00 L 447.33,486.00 L 451.50,486.07 L 452.49,486.10 L 454.28,486.16 L 455.14,486.19 L 456.66,486.28 L 457.39,486.32 L 458.62,486.42 L 459.19,486.47 L 460.10,486.59 L 460.51,486.65 L 461.07,486.79 L 461.50,487.00 L 461.55,487.08 L 461.37,487.23 L 461.24,487.30 L 460.70,487.43 L 460.38,487.49 L 459.48,487.60 L 458.98,487.65 L 457.72,487.74 L 457.05,487.79 L 455.45,487.86 L 454.60,487.89 L 452.66,487.94 L 451.64,487.96 L 449.36,487.98 L 445.56,488.00 L 444.26,488.00 L 441.87,487.98 L 440.71,487.97 L 438.60,487.93 L 437.58,487.91 L 435.76,487.85 L 434.89,487.82 L 433.39,487.73 L 432.68,487.69 L 431.50,487.59 L 430.96,487.54 L 430.13,487.42 L 429.76,487.36 L 429.29,487.22 L 429.10,487.15 M 380.62,471.88 L 380.38,470.66 L 380.12,467.51 L 380.02,465.90 L 380.03,462.62 L 380.05,461.83 L 380.14,460.38 L 380.19,459.69 L 380.34,458.51 L 380.42,457.96 L 380.63,457.16 L 381.00,456.50 L 381.16,456.40 L 381.43,456.87 L 381.55,457.21 L 381.74,458.53 L 381.83,459.29 L 381.93,461.41 L 382.00,465.44 L 382.00,466.76 L 381.97,469.15 L 381.95,470.30 L 381.89,472.19 L 381.86,473.06 L 381.77,474.25 L 381.62,475.00 L 381.57,475.00 L 381.43,474.75 L 381.35,474.59 L 381.18,474.08 L 381.00,473.52 M 268.09,472.62 L 267.83,472.30 L 267.49,471.76 L 267.34,471.50 L 267.24,471.04 L 267.83,469.77 L 268.20,469.40 L 268.84,469.10 L 269.13,469.03 L 269.55,469.32 L 269.73,469.52 L 269.90,470.33 L 269.83,472.08 L 269.75,472.60 L 269.61,473.27 L 269.54,473.54 L 269.34,473.73 L 269.22,473.76 L 268.87,473.50 L 268.67,473.31 M 282.00,473.00 L 281.71,472.81 L 281.41,472.53 L 281.30,472.40 L 281.40,472.23 L 281.50,472.15 L 282.02,472.07 L 283.31,472.02 L 284.12,472.01 L 285.15,472.29 L 285.34,472.38 L 285.54,472.60 L 285.50,473.00 L 285.31,473.31 L 284.90,473.70 L 284.69,473.85 L 284.18,473.93 L 283.91,473.93 L 283.25,473.70 L 282.89,473.54 M 462.50,473.00 L 462.41,472.85 L 462.48,472.60 L 462.55,472.48 L 462.92,472.28 L 464.94,472.00 L 465.78,472.00 L 467.10,472.29 L 467.38,472.38 L 467.76,472.61 L 468.00,473.00 L 468.00,473.27 L 467.28,473.71 L 465.56,474.00 L 464.89,474.00 L 463.65,473.71 L 463.10,473.52 M 423.00,463.00 L 423.00,462.09 L 423.28,460.93 L 423.37,460.71 L 423.60,460.48 L 424.00,460.50 L 424.27,460.67 L 424.71,461.49 L 425.00,463.00 L 425.00,463.52 L 424.71,464.51 L 424.00,465.50 L 423.85,465.59 L 423.60,465.52 L 423.48,465.44 L 423.28,465.07 L 423.10,464.63 M 241.00,461.56 L 241.00,460.58 L 241.29,459.05 L 241.38,458.72 L 241.61,458.28 L 242.00,458.00 L 242.14,458.00 L 242.39,458.23 L 242.51,458.38 L 242.71,458.86 L 243.00,460.94 L 243.00,461.75 L 242.71,463.20 L 242.62,463.52 L 242.39,464.03 L 242.00,464.50 L 241.85,464.59 L 241.59,464.49 L 241.47,464.40 L 241.28,463.96 L 241.19,463.70 L 241.07,462.96 L 241.03,462.56 M 651.52,453.75 L 652.08,446.00 L 641.92,446.00 L 640.86,446.00 L 639.05,445.99 L 638.20,445.98 L 636.78,445.95 L 636.12,445.93 L 635.07,445.87 L 634.59,445.84 L 633.86,445.74 L 633.53,445.69 L 633.09,445.57 L 632.90,445.50 L 632.71,445.33 L 632.90,444.62 L 633.10,444.38 L 633.88,444.00 L 634.34,443.83 L 635.70,443.60 L 636.46,443.50 L 638.48,443.39 L 642.37,443.37 L 643.71,443.39 L 645.97,443.48 L 647.04,443.54 L 648.78,443.73 L 649.60,443.84 L 650.88,444.18 L 651.46,444.37 L 652.34,444.89 L 652.73,445.18 L 653.26,445.93 L 653.49,446.33 L 653.72,447.35 L 653.81,447.90 L 653.81,449.23 L 653.61,451.62 L 653.48,452.77 L 653.19,454.72 L 653.04,455.63 L 652.74,457.08 L 652.59,457.73 L 652.31,458.66 L 652.17,459.05 L 651.92,459.43 L 651.81,459.55 L 651.62,459.36 L 651.53,459.19 L 651.43,458.41 L 651.39,457.95 L 651.38,456.55 L 651.40,455.78 M 299.00,445.07 L 299.00,444.73 L 299.61,444.15 L 299.99,443.88 L 301.12,443.50 L 301.73,443.34 L 303.08,443.24 L 305.00,443.50 L 305.42,443.63 L 306.05,443.91 L 306.34,444.06 L 306.70,444.34 L 307.00,444.63 L 306.85,445.15 L 306.65,445.40 L 305.57,445.76 L 303.00,446.00 L 301.90,446.00 L 300.17,445.73 L 299.81,445.64 L 299.32,445.43 L 299.11,445.32 M 481.00,445.02 L 481.00,444.70 L 481.74,444.12 L 482.19,443.85 L 483.51,443.44 L 484.20,443.26 L 485.65,443.12 L 487.50,443.36 L 488.22,443.64 L 488.89,444.24 L 489.10,444.54 L 488.82,445.10 L 488.58,445.36 L 487.47,445.74 L 485.00,446.00 L 483.90,446.00 L 482.17,445.71 L 481.81,445.62 L 481.32,445.40 L 481.11,445.28 M 277.00,444.11 L 277.00,443.81 L 277.31,443.32 L 277.51,443.08 L 278.15,442.71 L 278.85,442.37 L 280.81,442.09 L 281.82,442.02 L 283.82,442.33 L 284.28,442.44 L 285.08,442.79 L 286.00,443.50 L 286.27,443.83 L 286.47,444.28 L 286.51,444.48 L 286.13,444.74 L 285.86,444.84 L 284.75,444.95 L 282.12,445.00 L 281.42,445.00 L 280.13,444.93 L 279.52,444.88 L 278.50,444.74 L 278.04,444.66 L 277.40,444.45 L 277.14,444.35 M 459.00,444.11 L 459.00,443.81 L 459.31,443.32 L 459.51,443.08 L 460.15,442.71 L 460.85,442.37 L 462.81,442.09 L 463.82,442.02 L 465.82,442.33 L 466.28,442.44 L 467.08,442.79 L 468.00,443.50 L 468.27,443.83 L 468.47,444.28 L 468.51,444.48 L 468.13,444.74 L 467.86,444.84 L 466.75,444.95 L 464.12,445.00 L 463.42,445.00 L 462.13,444.93 L 461.52,444.88 L 460.50,444.74 L 460.04,444.66 L 459.40,444.45 L 459.14,444.35 M 182.79,439.05 L 182.72,438.56 L 182.68,437.76 L 182.67,437.40 L 182.74,436.86 L 182.80,436.63 L 182.99,436.36 L 183.42,436.31 L 183.79,436.43 L 184.33,437.11 L 184.57,437.49 L 184.82,438.48 L 184.90,438.98 L 184.80,439.98 L 184.22,441.18 L 184.06,441.34 L 183.77,441.39 L 183.63,441.38 L 183.38,441.10 L 183.26,440.92 L 183.05,440.31 L 182.95,439.97 M 422.00,437.00 L 422.00,436.38 L 422.07,435.35 L 422.12,434.88 L 422.27,434.18 L 422.36,433.87 L 422.59,433.54 L 423.00,433.50 L 423.27,433.67 L 423.71,434.78 L 424.00,437.00 L 424.00,437.79 L 423.71,439.22 L 423.00,440.50 L 422.85,440.59 L 422.59,440.46 L 422.47,440.35 L 422.27,439.82 L 422.19,439.52 L 422.07,438.65 L 422.02,438.18 M 240.02,435.69 L 240.01,434.95 L 240.08,433.74 L 240.12,433.18 L 240.27,432.35 L 240.36,431.98 L 240.59,431.58 L 241.00,431.50 L 241.32,431.70 L 241.72,432.73 L 241.87,433.31 L 241.95,434.81 L 241.95,435.57 L 241.72,437.11 L 241.00,439.00 L 240.82,439.27 L 240.55,439.43 L 240.43,439.44 L 240.25,439.05 L 240.17,438.79 L 240.08,437.83 L 240.04,437.27 M 352.09,422.00 L 352.08,420.22 L 352.12,417.44 L 352.15,416.19 L 352.28,414.45 L 352.36,413.70 L 352.57,412.97 L 353.00,413.00 L 353.15,413.23 L 353.39,414.17 L 353.50,414.70 L 353.67,416.12 L 353.82,417.63 L 353.89,421.40 L 353.89,423.30 L 353.67,426.86 L 353.59,427.67 L 353.39,429.03 L 353.00,430.50 L 352.86,430.82 L 352.63,430.67 L 352.52,430.47 L 352.35,429.28 L 352.27,428.56 L 352.17,426.37 L 352.12,425.16 M 618.75,430.91 L 618.30,430.65 L 617.64,429.77 L 617.36,429.30 L 617.06,428.21 L 616.97,427.67 L 617.09,426.68 L 617.81,425.62 L 617.87,425.58 L 617.97,425.20 L 618.01,424.96 L 618.10,424.20 L 618.13,423.78 L 618.20,422.69 L 618.23,422.10 L 618.27,420.72 L 618.31,419.27 L 618.33,415.70 L 618.25,409.65 L 618.22,408.38 L 618.18,406.05 L 618.17,404.93 L 618.16,402.90 L 618.16,401.92 L 618.18,400.19 L 618.19,399.36 L 618.24,397.94 L 618.27,397.26 L 618.35,396.14 L 618.40,395.62 L 618.51,394.80 L 618.56,394.44 L 618.70,393.93 L 618.94,393.54 L 619.03,393.48 L 619.20,393.64 L 619.28,393.77 L 619.41,394.31 L 619.48,394.63 L 619.60,395.56 L 619.65,396.08 L 619.74,397.40 L 619.79,398.11 L 619.86,399.84 L 619.89,400.76 L 619.94,402.91 L 619.96,404.03 L 619.98,406.60 L 620.00,410.94 L 620.00,429.00 L 628.00,429.00 L 629.24,429.00 L 631.35,429.07 L 632.33,429.12 L 633.87,429.28 L 634.56,429.37 L 635.45,429.62 L 636.00,430.06 L 636.00,430.23 L 635.60,430.49 L 635.34,430.61 L 634.45,430.77 L 633.96,430.84 L 632.64,430.90 L 630.25,430.88 L 628.67,430.81 L 625.60,430.89 L 624.90,430.93 L 623.73,431.04 L 622.50,431.27 L 621.95,431.45 L 620.57,431.44 L 619.89,431.37 M 449.66,430.25 L 449.63,430.20 L 449.56,429.86 L 449.53,429.65 L 449.48,429.03 L 449.42,428.35 L 449.33,426.28 L 449.28,425.15 L 449.22,422.39 L 449.18,417.78 L 449.18,416.17 L 449.12,413.15 L 449.09,411.70 L 448.98,409.21 L 448.92,408.06 L 448.78,406.37 L 448.74,406.01 L 448.66,405.50 L 448.53,405.05 L 448.36,404.78 L 448.41,403.74 L 449.00,401.99 L 449.26,401.52 L 449.82,400.89 L 450.15,400.62 L 451.20,400.35 L 451.51,400.30 L 452.30,400.25 L 452.73,400.24 L 453.80,400.26 L 454.37,400.28 L 455.77,400.36 L 458.30,400.53 L 459.73,400.63 L 462.08,400.87 L 463.18,400.99 L 464.87,401.26 L 465.63,401.39 L 466.64,401.67 L 467.06,401.80 L 467.38,402.07 L 467.45,402.20 L 467.07,402.43 L 466.79,402.54 L 465.70,402.73 L 465.06,402.81 L 463.25,402.93 L 459.70,403.00 L 451.00,403.00 L 451.00,416.00 L 451.00,418.12 L 451.07,421.61 L 451.11,423.23 L 451.27,425.68 L 451.31,426.23 L 451.42,427.12 L 451.48,427.54 L 451.60,428.16 L 451.67,428.44 L 451.82,428.79 L 452.06,429.00 L 452.35,429.00 L 452.63,429.29 L 452.50,430.00 L 452.32,430.30 L 451.84,430.69 L 451.59,430.85 L 451.05,430.96 L 450.78,430.99 L 450.27,430.82 L 450.03,430.71 M 267.50,429.01 L 267.34,428.74 L 267.37,427.79 L 267.92,426.26 L 268.15,425.86 L 268.47,425.38 L 268.61,425.19 L 268.78,425.13 L 268.85,425.16 L 268.92,425.55 L 268.97,426.67 L 268.98,427.26 L 269.36,428.35 L 270.25,429.34 L 270.63,429.49 L 270.71,429.73 L 269.81,429.92 L 269.34,429.94 L 268.43,429.69 L 268.02,429.52 M 293.50,429.00 L 293.41,428.86 L 293.45,428.60 L 293.51,428.48 L 293.81,428.29 L 295.50,428.00 L 296.25,428.00 L 297.19,428.29 L 297.37,428.38 L 297.55,428.60 L 297.50,429.00 L 297.33,429.27 L 296.66,429.71 L 295.50,430.00 L 295.12,430.00 L 294.34,429.71 L 293.98,429.52 M 475.00,429.00 L 474.72,428.82 L 474.51,428.55 L 474.46,428.42 L 474.73,428.25 L 474.93,428.17 L 475.71,428.08 L 477.50,428.03 L 478.24,428.03 L 479.29,428.08 L 479.75,428.12 L 480.27,428.25 L 480.47,428.32 L 480.49,428.55 L 480.00,429.00 L 479.59,429.27 L 478.65,429.68 L 477.50,429.97 L 477.22,429.97 L 476.35,429.68 L 475.90,429.51 M 649.00,429.00 L 649.00,428.72 L 649.37,428.29 L 650.25,428.00 L 650.37,428.00 L 650.58,427.80 L 650.67,427.66 L 650.84,427.15 L 650.91,426.84 L 651.03,425.97 L 651.09,425.49 L 651.17,424.22 L 651.20,423.53 L 651.25,421.81 L 651.26,420.89 L 651.27,418.68 L 651.27,417.51 L 651.24,414.77 L 651.17,410.00 L 651.14,408.56 L 651.11,405.91 L 651.10,404.63 L 651.09,402.31 L 651.09,401.20 L 651.12,399.23 L 651.13,398.29 L 651.18,396.67 L 651.21,395.90 L 651.29,394.65 L 651.33,394.07 L 651.43,393.19 L 651.49,392.80 L 651.62,392.30 L 651.84,392.00 L 651.92,392.00 L 652.09,392.41 L 652.16,392.67 L 652.31,393.56 L 652.39,394.06 L 652.52,395.35 L 652.59,396.04 L 652.71,397.68 L 652.82,399.39 L 653.00,403.52 L 653.08,405.66 L 653.19,410.25 L 653.23,412.54 L 653.24,417.02 L 653.24,419.19 L 653.16,423.00 L 653.13,423.88 L 653.06,425.43 L 653.02,426.16 L 652.91,427.35 L 652.86,427.89 L 652.73,428.65 L 652.50,429.23 L 652.14,429.50 L 651.34,429.81 L 650.95,429.93 L 650.21,429.95 L 649.86,429.93 L 649.34,429.68 L 649.13,429.52 M 267.75,422.67 L 267.58,422.26 L 267.33,420.82 L 267.22,420.01 L 267.07,417.96 L 267.01,416.87 L 266.96,414.45 L 266.94,413.22 L 266.98,410.69 L 267.01,409.44 L 267.13,407.06 L 267.20,405.91 L 267.40,403.93 L 267.51,403.02 L 267.78,401.70 L 268.26,400.73 L 268.47,400.65 L 269.41,400.57 L 269.95,400.55 L 271.40,400.57 L 272.95,400.62 L 276.74,400.93 L 277.68,401.02 L 279.49,401.23 L 280.37,401.34 L 281.92,401.57 L 282.64,401.69 L 283.73,401.93 L 284.62,402.28 L 284.72,402.38 L 284.25,402.56 L 283.93,402.65 L 282.73,402.79 L 282.06,402.85 L 280.30,402.94 L 277.20,403.00 L 269.07,403.00 L 268.78,413.75 L 268.74,415.26 L 268.61,417.83 L 268.54,419.03 L 268.36,420.85 L 268.27,421.66 L 268.07,422.55 L 268.01,422.71 L 267.91,422.83 L 267.86,422.85 M 677.42,411.43 L 677.21,410.33 L 677.23,408.51 L 677.27,408.10 L 677.45,407.44 L 677.87,406.73 L 678.08,406.52 L 678.40,406.44 L 678.55,406.47 L 678.75,406.89 L 678.84,407.18 L 678.94,408.16 L 679.00,410.30 L 679.00,411.00 L 678.97,412.16 L 678.95,412.70 L 678.88,413.53 L 678.85,413.91 L 678.74,414.42 L 678.69,414.63 L 678.56,414.81 L 678.49,414.86 L 678.33,414.71 L 678.24,414.60 L 678.06,414.12 L 677.96,413.84 L 677.75,413.02 L 677.65,412.58 M 239.43,400.45 L 239.44,399.32 L 239.48,397.38 L 239.50,396.46 L 239.58,394.93 L 239.62,394.21 L 239.73,393.09 L 239.79,392.57 L 239.94,391.84 L 240.02,391.52 L 240.21,391.18 L 240.31,391.05 L 240.54,391.09 L 240.66,391.15 L 240.93,391.56 L 241.39,392.58 L 241.53,392.94 L 241.73,394.00 L 241.82,394.58 L 241.93,395.99 L 242.01,397.45 L 241.93,400.81 L 241.85,402.48 L 241.48,405.43 L 241.37,406.09 L 241.10,407.14 L 240.65,408.19 L 240.38,408.55 L 240.00,408.69 L 239.91,408.67 L 239.77,408.45 L 239.71,408.30 L 239.61,407.81 L 239.57,407.53 L 239.51,406.74 L 239.48,406.31 L 239.45,405.19 L 239.43,404.59 L 239.42,403.11 L 239.42,402.32 M 421.33,402.45 L 421.33,401.43 L 421.40,399.74 L 421.44,398.95 L 421.59,397.74 L 421.66,397.19 L 421.86,396.46 L 421.97,396.16 L 422.21,395.92 L 422.33,395.86 L 422.59,396.12 L 422.72,396.31 L 422.99,397.08 L 423.12,397.53 L 423.38,398.81 L 423.73,401.32 L 423.82,402.08 L 423.87,403.43 L 423.87,404.08 L 423.75,405.22 L 422.79,407.89 L 422.46,408.37 L 422.00,408.81 L 421.80,408.92 L 421.56,408.46 L 421.51,408.27 L 421.44,407.69 L 421.41,407.36 L 421.37,406.46 L 421.36,405.97 L 421.34,404.73 L 421.34,404.07 M 593.26,399.09 L 593.28,397.64 L 593.36,395.43 L 593.41,394.43 L 593.58,393.09 L 593.67,392.52 L 593.93,391.99 L 594.42,392.03 L 594.60,392.20 L 594.89,392.98 L 595.02,393.43 L 595.21,394.62 L 595.38,395.90 L 595.44,399.05 L 595.42,400.63 L 595.13,403.49 L 595.03,404.13 L 594.78,405.14 L 594.30,406.10 L 594.09,406.31 L 593.78,406.21 L 593.63,406.06 L 593.44,405.17 L 593.36,404.62 L 593.28,402.85 L 593.25,401.85 M 306.50,403.00 L 306.67,402.72 L 307.49,402.29 L 309.00,402.00 L 309.52,402.00 L 310.51,402.29 L 311.50,403.00 L 311.59,403.15 L 311.52,403.40 L 311.44,403.52 L 311.07,403.72 L 309.00,404.00 L 308.09,404.00 L 306.93,403.72 L 306.71,403.63 L 306.48,403.40 L 306.41,403.28 M 488.44,402.47 L 489.06,402.00 L 490.13,401.42 L 490.64,401.19 L 491.56,401.08 L 492.00,401.08 L 492.82,401.44 L 494.00,402.50 L 494.27,402.82 L 494.50,403.28 L 494.55,403.48 L 494.25,403.73 L 494.03,403.83 L 493.10,403.93 L 490.87,403.97 L 489.86,403.96 L 488.53,403.91 L 487.97,403.88 L 487.46,403.72 L 487.29,403.62 L 487.49,403.27 L 487.66,403.07 M 381.27,401.75 L 381.35,401.53 L 381.87,401.20 L 382.19,401.05 L 383.24,400.87 L 383.83,400.79 L 385.46,400.73 L 388.60,400.79 L 389.87,400.84 L 391.95,401.01 L 392.92,401.10 L 394.38,401.32 L 395.04,401.43 L 395.88,401.68 L 396.23,401.80 L 396.45,402.06 L 396.48,402.18 L 396.06,402.41 L 395.77,402.53 L 394.71,402.72 L 394.10,402.80 L 392.40,402.92 L 389.12,403.00 L 387.57,403.00 L 385.23,402.94 L 384.18,402.89 L 382.75,402.73 L 382.13,402.63 L 381.49,402.34 L 381.25,402.18 M 313.19,399.14 L 312.98,399.00 L 312.66,398.43 L 312.52,398.10 L 312.32,397.23 L 312.16,396.29 L 312.18,394.01 L 312.25,392.88 L 312.68,390.89 L 312.82,390.45 L 313.15,389.79 L 313.75,389.24 L 313.97,389.17 L 314.32,389.36 L 314.48,389.52 L 314.71,390.21 L 314.81,390.63 L 314.93,391.87 L 315.00,394.42 L 315.00,395.18 L 314.98,396.58 L 314.97,397.25 L 314.93,398.36 L 314.90,398.86 L 314.85,399.55 L 314.75,399.98 L 314.68,399.98 L 314.19,399.73 L 313.90,399.58 M 317.50,393.50 L 317.50,392.46 L 317.56,390.96 L 317.60,390.30 L 317.76,389.49 L 317.86,389.17 L 318.14,388.95 L 318.75,389.21 L 318.92,389.35 L 319.24,389.87 L 319.38,390.16 L 319.63,390.90 L 320.00,393.50 L 320.00,394.40 L 319.63,396.10 L 319.52,396.49 L 319.24,397.13 L 318.75,397.79 L 318.51,397.99 L 318.14,398.05 L 317.98,398.01 L 317.76,397.51 L 317.66,397.18 L 317.56,396.04 L 317.52,395.38 M 235.00,392.06 L 235.00,391.80 L 235.29,391.21 L 236.00,390.50 L 236.27,390.33 L 236.71,390.52 L 237.00,391.44 L 237.00,391.87 L 236.71,392.54 L 236.00,393.00 L 235.72,393.00 L 235.29,392.72 L 235.11,392.55 M 260.24,388.78 L 259.35,388.55 L 257.95,388.05 L 257.66,387.93 L 257.26,387.72 L 257.00,387.47 L 257.00,387.44 L 257.21,387.38 L 257.35,387.35 L 257.81,387.29 L 258.33,387.24 L 260.01,387.15 L 260.94,387.11 L 263.27,387.06 L 267.25,387.03 L 268.79,387.03 L 271.33,387.10 L 272.51,387.15 L 274.27,387.29 L 275.03,387.36 L 275.88,387.56 L 276.00,387.91 L 275.72,388.07 L 274.82,388.35 L 274.33,388.49 L 273.10,388.72 L 271.80,388.94 L 268.65,389.18 L 267.05,389.27 L 263.94,389.23 L 263.20,389.20 L 261.88,389.07 L 261.26,389.00 M 441.20,389.06 L 440.42,388.87 L 439.24,388.53 L 438.72,388.36 L 438.05,388.08 L 437.78,387.95 L 437.64,387.72 L 437.64,387.62 L 438.03,387.45 L 438.30,387.37 L 439.25,387.25 L 439.80,387.19 L 441.32,387.12 L 442.15,387.08 L 444.26,387.04 L 448.08,387.03 L 449.88,387.04 L 452.80,387.10 L 454.14,387.15 L 456.09,387.29 L 456.51,387.33 L 457.17,387.42 L 457.46,387.47 L 457.85,387.58 L 458.01,387.63 L 458.12,387.75 L 457.97,387.96 L 457.69,388.12 L 456.75,388.43 L 456.23,388.57 L 454.91,388.83 L 453.52,389.07 L 450.13,389.37 L 448.41,389.48 L 445.08,389.48 L 444.30,389.46 L 442.90,389.34 L 442.25,389.27 M 144.44,386.53 L 143.98,386.18 L 143.44,385.72 L 143.23,385.51 L 143.25,385.27 L 143.33,385.17 L 143.98,385.08 L 145.72,385.03 L 146.33,385.03 L 147.23,385.09 L 147.63,385.14 L 148.13,385.33 L 148.33,385.44 L 148.48,385.78 L 148.36,386.50 L 148.18,386.97 L 147.79,387.56 L 147.58,387.79 L 147.05,387.91 L 146.76,387.92 L 145.99,387.57 L 145.56,387.34 Z" fill="rgba(109,108,108,1)"/>
</g>
</svg>